<mxfile host="Electron" modified="2024-01-02T01:10:03.353Z" agent="Mozilla/5.0 (Windows NT 10.0; Win64; x64) AppleWebKit/537.36 (KHTML, like Gecko) draw.io/22.1.11 Chrome/114.0.5735.289 Electron/25.9.8 Safari/537.36" etag="JeW6-nldGIX3MaTGk_7-" version="22.1.11" type="device" pages="7">
  <diagram id="vm7fa-81EVcltnXp5krS" name="Page-1">
    <mxGraphModel dx="1241" dy="995" grid="1" gridSize="10" guides="1" tooltips="1" connect="1" arrows="1" fold="1" page="1" pageScale="1" pageWidth="827" pageHeight="1169" math="0" shadow="0">
      <root>
        <mxCell id="0" />
        <mxCell id="1" parent="0" />
        <mxCell id="vbatBPOmMzBNy_kZlJPo-1" value="Une Souscription est necessaire pour lier un client et une offre" style="shape=note;whiteSpace=wrap;html=1;backgroundOutline=1;darkOpacity=0.05;fillColor=#fff2cc;strokeColor=#d6b656;sketch=1;curveFitting=1;jiggle=2;" parent="1" vertex="1">
          <mxGeometry x="210" y="10" width="170" height="120" as="geometry" />
        </mxCell>
        <mxCell id="kYI4zglxMZKuieUK_z1b-1" value="Hypothese" style="rounded=0;whiteSpace=wrap;html=1;fillColor=#fff2cc;strokeColor=#d6b656;sketch=1;curveFitting=1;jiggle=2;" parent="1" vertex="1">
          <mxGeometry x="40" y="40" width="120" height="60" as="geometry" />
        </mxCell>
        <mxCell id="kYI4zglxMZKuieUK_z1b-2" value="Fait" style="rounded=0;whiteSpace=wrap;html=1;fillColor=#d5e8d4;strokeColor=#82b366;sketch=1;curveFitting=1;jiggle=2;" parent="1" vertex="1">
          <mxGeometry x="40" y="280" width="120" height="60" as="geometry" />
        </mxCell>
        <mxCell id="kYI4zglxMZKuieUK_z1b-3" value="Deduction" style="rounded=0;whiteSpace=wrap;html=1;fillColor=#e1d5e7;strokeColor=#9673a6;sketch=1;curveFitting=1;jiggle=2;" parent="1" vertex="1">
          <mxGeometry x="40" y="524.5" width="120" height="60" as="geometry" />
        </mxCell>
        <mxCell id="i1MJPppx1ngqPGv1KzRI-1" value="La remise s&#39;applique sur la Facturation au cas par cas" style="shape=note;whiteSpace=wrap;html=1;backgroundOutline=1;darkOpacity=0.05;fillColor=#e1d5e7;strokeColor=#9673a6;sketch=1;curveFitting=1;jiggle=2;" parent="1" vertex="1">
          <mxGeometry x="900" y="504.5" width="170" height="100" as="geometry" />
        </mxCell>
        <mxCell id="XM__EVLYg5ptWGNI4QET-1" value="" style="endArrow=none;dashed=1;html=1;dashPattern=1 3;strokeWidth=2;rounded=0;" parent="1" source="vbatBPOmMzBNy_kZlJPo-1" target="xDKSibGGfH3myITTRYmI-1" edge="1">
          <mxGeometry width="50" height="50" relative="1" as="geometry">
            <mxPoint x="390" y="630" as="sourcePoint" />
            <mxPoint x="440" y="580" as="targetPoint" />
          </mxGeometry>
        </mxCell>
        <mxCell id="XM__EVLYg5ptWGNI4QET-2" value="Le moyen de paiement est lié à la Souscription" style="shape=note;whiteSpace=wrap;html=1;backgroundOutline=1;darkOpacity=0.05;fillColor=#e1d5e7;strokeColor=#9673a6;sketch=1;curveFitting=1;jiggle=2;" parent="1" vertex="1">
          <mxGeometry x="210" y="504.5" width="170" height="100" as="geometry" />
        </mxCell>
        <mxCell id="XM__EVLYg5ptWGNI4QET-4" value="" style="endArrow=none;dashed=1;html=1;dashPattern=1 3;strokeWidth=2;rounded=0;" parent="1" source="XM__EVLYg5ptWGNI4QET-2" target="ibuzKaYGjDSngDpmr6Bw-1" edge="1">
          <mxGeometry width="50" height="50" relative="1" as="geometry">
            <mxPoint x="320" y="800" as="sourcePoint" />
            <mxPoint x="370" y="750" as="targetPoint" />
          </mxGeometry>
        </mxCell>
        <mxCell id="uRNdd6o27xO9oO8rQaI2-1" value="Le Tarif d&#39;une offre peut varier avec le temps" style="shape=note;whiteSpace=wrap;html=1;backgroundOutline=1;darkOpacity=0.05;fillColor=#d5e8d4;strokeColor=#82b366;sketch=1;curveFitting=1;jiggle=2;" parent="1" vertex="1">
          <mxGeometry x="672" y="260" width="140" height="100" as="geometry" />
        </mxCell>
        <mxCell id="uRNdd6o27xO9oO8rQaI2-2" value="Une table historique des tarifs est necessaire pour ne pas impacter les souscriptions" style="shape=note;whiteSpace=wrap;html=1;backgroundOutline=1;darkOpacity=0.05;fillColor=#e1d5e7;strokeColor=#9673a6;sketch=1;curveFitting=1;jiggle=2;" parent="1" vertex="1">
          <mxGeometry x="652" y="504.5" width="180" height="100" as="geometry" />
        </mxCell>
        <mxCell id="uRNdd6o27xO9oO8rQaI2-3" value="" style="endArrow=none;dashed=1;html=1;dashPattern=1 3;strokeWidth=2;rounded=0;" parent="1" source="uRNdd6o27xO9oO8rQaI2-2" target="uRNdd6o27xO9oO8rQaI2-1" edge="1">
          <mxGeometry width="50" height="50" relative="1" as="geometry">
            <mxPoint x="720" y="630" as="sourcePoint" />
            <mxPoint x="770" y="580" as="targetPoint" />
          </mxGeometry>
        </mxCell>
        <mxCell id="nA5guKa0d5QkSOnbUT68-1" value="" style="endArrow=none;dashed=1;html=1;dashPattern=1 3;strokeWidth=2;rounded=0;" parent="1" source="uRNdd6o27xO9oO8rQaI2-2" target="vbatBPOmMzBNy_kZlJPo-1" edge="1">
          <mxGeometry width="50" height="50" relative="1" as="geometry">
            <mxPoint x="580" y="170" as="sourcePoint" />
            <mxPoint x="630" y="120" as="targetPoint" />
          </mxGeometry>
        </mxCell>
        <mxCell id="nA5guKa0d5QkSOnbUT68-2" value="" style="endArrow=none;dashed=1;html=1;dashPattern=1 3;strokeWidth=2;rounded=0;" parent="1" source="uRNdd6o27xO9oO8rQaI2-2" target="i1MJPppx1ngqPGv1KzRI-1" edge="1">
          <mxGeometry width="50" height="50" relative="1" as="geometry">
            <mxPoint x="840" y="720" as="sourcePoint" />
            <mxPoint x="890" y="670" as="targetPoint" />
          </mxGeometry>
        </mxCell>
        <mxCell id="oBMucOj2A6pSY5SeKMJ2-1" value="La Remise ne s&#39;applique pas sur le Tarif directement" style="shape=note;whiteSpace=wrap;html=1;backgroundOutline=1;darkOpacity=0.05;fillColor=#d5e8d4;strokeColor=#82b366;sketch=1;curveFitting=1;jiggle=2;" parent="1" vertex="1">
          <mxGeometry x="927.5" y="260" width="115" height="100" as="geometry" />
        </mxCell>
        <mxCell id="z1036jqySpr8tLW82wDj-1" value="" style="endArrow=none;dashed=1;html=1;dashPattern=1 3;strokeWidth=2;rounded=0;" parent="1" source="i1MJPppx1ngqPGv1KzRI-1" target="oBMucOj2A6pSY5SeKMJ2-1" edge="1">
          <mxGeometry width="50" height="50" relative="1" as="geometry">
            <mxPoint x="540" y="340" as="sourcePoint" />
            <mxPoint x="590" y="290" as="targetPoint" />
          </mxGeometry>
        </mxCell>
        <mxCell id="ibuzKaYGjDSngDpmr6Bw-1" value="Il faut un moyen de Paiement pour l&#39;Offre" style="shape=note;whiteSpace=wrap;html=1;backgroundOutline=1;darkOpacity=0.05;fillColor=#d5e8d4;strokeColor=#82b366;sketch=1;curveFitting=1;jiggle=2;" parent="1" vertex="1">
          <mxGeometry x="215" y="260" width="160" height="100" as="geometry" />
        </mxCell>
        <mxCell id="1EvLtnu7GrtHBJWBBoQ4-5" value="" style="endArrow=none;dashed=1;html=1;dashPattern=1 3;strokeWidth=2;rounded=0;" parent="1" source="ibuzKaYGjDSngDpmr6Bw-1" target="vbatBPOmMzBNy_kZlJPo-1" edge="1">
          <mxGeometry width="50" height="50" relative="1" as="geometry">
            <mxPoint x="250" y="210" as="sourcePoint" />
            <mxPoint x="300" y="160" as="targetPoint" />
          </mxGeometry>
        </mxCell>
        <mxCell id="SkYDlL_ppUYwUSn2cOa9-1" value="Cet état peut-etre déduit avec un historique de facturation." style="shape=note;whiteSpace=wrap;html=1;backgroundOutline=1;darkOpacity=0.05;fillColor=#e1d5e7;strokeColor=#9673a6;sketch=1;curveFitting=1;jiggle=2;" parent="1" vertex="1">
          <mxGeometry x="430" y="604.5" width="170" height="100" as="geometry" />
        </mxCell>
        <mxCell id="SkYDlL_ppUYwUSn2cOa9-2" value="" style="endArrow=none;dashed=1;html=1;dashPattern=1 3;strokeWidth=2;rounded=0;" parent="1" source="SkYDlL_ppUYwUSn2cOa9-1" target="xDKSibGGfH3myITTRYmI-1" edge="1">
          <mxGeometry width="50" height="50" relative="1" as="geometry">
            <mxPoint x="1370" y="340" as="sourcePoint" />
            <mxPoint x="1420" y="290" as="targetPoint" />
          </mxGeometry>
        </mxCell>
        <mxCell id="SkYDlL_ppUYwUSn2cOa9-3" value="" style="endArrow=none;dashed=1;html=1;dashPattern=1 3;strokeWidth=2;rounded=0;" parent="1" source="SkYDlL_ppUYwUSn2cOa9-1" target="ibuzKaYGjDSngDpmr6Bw-1" edge="1">
          <mxGeometry width="50" height="50" relative="1" as="geometry">
            <mxPoint x="520" y="170" as="sourcePoint" />
            <mxPoint x="570" y="120" as="targetPoint" />
          </mxGeometry>
        </mxCell>
        <mxCell id="xDKSibGGfH3myITTRYmI-1" value="Une souscription a un état" style="shape=note;whiteSpace=wrap;html=1;backgroundOutline=1;darkOpacity=0.05;fillColor=#e1d5e7;strokeColor=#9673a6;sketch=1;curveFitting=1;jiggle=2;" parent="1" vertex="1">
          <mxGeometry x="440" y="404.5" width="150" height="100" as="geometry" />
        </mxCell>
      </root>
    </mxGraphModel>
  </diagram>
  <diagram id="NnQ32GsHOi-NPhLQwEd6" name="ERD v1">
    <mxGraphModel dx="1683" dy="686" grid="1" gridSize="10" guides="1" tooltips="1" connect="1" arrows="1" fold="1" page="1" pageScale="1" pageWidth="827" pageHeight="1169" math="0" shadow="0">
      <root>
        <mxCell id="0" />
        <mxCell id="1" parent="0" />
        <mxCell id="KhNQkySwgiJklhar0YiO-1" value="Customer" style="shape=table;startSize=30;container=1;collapsible=1;childLayout=tableLayout;fixedRows=1;rowLines=0;fontStyle=1;align=center;resizeLast=1;html=1;" parent="1" vertex="1">
          <mxGeometry x="-540" y="360" width="180" height="90" as="geometry" />
        </mxCell>
        <mxCell id="KhNQkySwgiJklhar0YiO-2" value="" style="shape=tableRow;horizontal=0;startSize=0;swimlaneHead=0;swimlaneBody=0;fillColor=none;collapsible=0;dropTarget=0;points=[[0,0.5],[1,0.5]];portConstraint=eastwest;top=0;left=0;right=0;bottom=1;" parent="KhNQkySwgiJklhar0YiO-1" vertex="1">
          <mxGeometry y="30" width="180" height="30" as="geometry" />
        </mxCell>
        <mxCell id="KhNQkySwgiJklhar0YiO-3" value="PK" style="shape=partialRectangle;connectable=0;fillColor=none;top=0;left=0;bottom=0;right=0;fontStyle=1;overflow=hidden;whiteSpace=wrap;html=1;" parent="KhNQkySwgiJklhar0YiO-2" vertex="1">
          <mxGeometry width="30" height="30" as="geometry">
            <mxRectangle width="30" height="30" as="alternateBounds" />
          </mxGeometry>
        </mxCell>
        <mxCell id="KhNQkySwgiJklhar0YiO-4" value="UniqueID" style="shape=partialRectangle;connectable=0;fillColor=none;top=0;left=0;bottom=0;right=0;align=left;spacingLeft=6;fontStyle=5;overflow=hidden;whiteSpace=wrap;html=1;" parent="KhNQkySwgiJklhar0YiO-2" vertex="1">
          <mxGeometry x="30" width="150" height="30" as="geometry">
            <mxRectangle width="150" height="30" as="alternateBounds" />
          </mxGeometry>
        </mxCell>
        <mxCell id="Ue_fEvQdMelFlZGZtrvL-20" value="" style="shape=tableRow;horizontal=0;startSize=0;swimlaneHead=0;swimlaneBody=0;fillColor=none;collapsible=0;dropTarget=0;points=[[0,0.5],[1,0.5]];portConstraint=eastwest;top=0;left=0;right=0;bottom=0;" vertex="1" parent="KhNQkySwgiJklhar0YiO-1">
          <mxGeometry y="60" width="180" height="30" as="geometry" />
        </mxCell>
        <mxCell id="Ue_fEvQdMelFlZGZtrvL-21" value="" style="shape=partialRectangle;connectable=0;fillColor=none;top=0;left=0;bottom=0;right=0;fontStyle=0;overflow=hidden;whiteSpace=wrap;html=1;" vertex="1" parent="Ue_fEvQdMelFlZGZtrvL-20">
          <mxGeometry width="30" height="30" as="geometry">
            <mxRectangle width="30" height="30" as="alternateBounds" />
          </mxGeometry>
        </mxCell>
        <mxCell id="Ue_fEvQdMelFlZGZtrvL-22" value="CustomerType" style="shape=partialRectangle;connectable=0;fillColor=none;top=0;left=0;bottom=0;right=0;align=left;spacingLeft=6;fontStyle=0;overflow=hidden;whiteSpace=wrap;html=1;" vertex="1" parent="Ue_fEvQdMelFlZGZtrvL-20">
          <mxGeometry x="30" width="150" height="30" as="geometry">
            <mxRectangle width="150" height="30" as="alternateBounds" />
          </mxGeometry>
        </mxCell>
        <mxCell id="KhNQkySwgiJklhar0YiO-14" value="CustomersDetails" style="shape=table;startSize=30;container=1;collapsible=1;childLayout=tableLayout;fixedRows=1;rowLines=0;fontStyle=1;align=center;resizeLast=1;html=1;" parent="1" vertex="1">
          <mxGeometry x="-290" y="370" width="180" height="120" as="geometry" />
        </mxCell>
        <mxCell id="KhNQkySwgiJklhar0YiO-15" value="" style="shape=tableRow;horizontal=0;startSize=0;swimlaneHead=0;swimlaneBody=0;fillColor=none;collapsible=0;dropTarget=0;points=[[0,0.5],[1,0.5]];portConstraint=eastwest;top=0;left=0;right=0;bottom=1;" parent="KhNQkySwgiJklhar0YiO-14" vertex="1">
          <mxGeometry y="30" width="180" height="30" as="geometry" />
        </mxCell>
        <mxCell id="KhNQkySwgiJklhar0YiO-16" value="PK" style="shape=partialRectangle;connectable=0;fillColor=none;top=0;left=0;bottom=0;right=0;fontStyle=1;overflow=hidden;whiteSpace=wrap;html=1;" parent="KhNQkySwgiJklhar0YiO-15" vertex="1">
          <mxGeometry width="30" height="30" as="geometry">
            <mxRectangle width="30" height="30" as="alternateBounds" />
          </mxGeometry>
        </mxCell>
        <mxCell id="KhNQkySwgiJklhar0YiO-17" value="UniqueID" style="shape=partialRectangle;connectable=0;fillColor=none;top=0;left=0;bottom=0;right=0;align=left;spacingLeft=6;fontStyle=5;overflow=hidden;whiteSpace=wrap;html=1;" parent="KhNQkySwgiJklhar0YiO-15" vertex="1">
          <mxGeometry x="30" width="150" height="30" as="geometry">
            <mxRectangle width="150" height="30" as="alternateBounds" />
          </mxGeometry>
        </mxCell>
        <mxCell id="npuYotQdPXIpSZ90aNdf-1" value="" style="shape=tableRow;horizontal=0;startSize=0;swimlaneHead=0;swimlaneBody=0;fillColor=none;collapsible=0;dropTarget=0;points=[[0,0.5],[1,0.5]];portConstraint=eastwest;top=0;left=0;right=0;bottom=0;" parent="KhNQkySwgiJklhar0YiO-14" vertex="1">
          <mxGeometry y="60" width="180" height="30" as="geometry" />
        </mxCell>
        <mxCell id="npuYotQdPXIpSZ90aNdf-2" value="FK" style="shape=partialRectangle;connectable=0;fillColor=none;top=0;left=0;bottom=0;right=0;fontStyle=0;overflow=hidden;whiteSpace=wrap;html=1;" parent="npuYotQdPXIpSZ90aNdf-1" vertex="1">
          <mxGeometry width="30" height="30" as="geometry">
            <mxRectangle width="30" height="30" as="alternateBounds" />
          </mxGeometry>
        </mxCell>
        <mxCell id="npuYotQdPXIpSZ90aNdf-3" value="BillingDetailsId" style="shape=partialRectangle;connectable=0;fillColor=none;top=0;left=0;bottom=0;right=0;align=left;spacingLeft=6;fontStyle=0;overflow=hidden;whiteSpace=wrap;html=1;" parent="npuYotQdPXIpSZ90aNdf-1" vertex="1">
          <mxGeometry x="30" width="150" height="30" as="geometry">
            <mxRectangle width="150" height="30" as="alternateBounds" />
          </mxGeometry>
        </mxCell>
        <mxCell id="npuYotQdPXIpSZ90aNdf-4" value="" style="shape=tableRow;horizontal=0;startSize=0;swimlaneHead=0;swimlaneBody=0;fillColor=none;collapsible=0;dropTarget=0;points=[[0,0.5],[1,0.5]];portConstraint=eastwest;top=0;left=0;right=0;bottom=0;" parent="KhNQkySwgiJklhar0YiO-14" vertex="1">
          <mxGeometry y="90" width="180" height="30" as="geometry" />
        </mxCell>
        <mxCell id="npuYotQdPXIpSZ90aNdf-5" value="FK" style="shape=partialRectangle;connectable=0;fillColor=none;top=0;left=0;bottom=0;right=0;fontStyle=0;overflow=hidden;whiteSpace=wrap;html=1;" parent="npuYotQdPXIpSZ90aNdf-4" vertex="1">
          <mxGeometry width="30" height="30" as="geometry">
            <mxRectangle width="30" height="30" as="alternateBounds" />
          </mxGeometry>
        </mxCell>
        <mxCell id="npuYotQdPXIpSZ90aNdf-6" value="ShippingDetailsId" style="shape=partialRectangle;connectable=0;fillColor=none;top=0;left=0;bottom=0;right=0;align=left;spacingLeft=6;fontStyle=0;overflow=hidden;whiteSpace=wrap;html=1;" parent="npuYotQdPXIpSZ90aNdf-4" vertex="1">
          <mxGeometry x="30" width="150" height="30" as="geometry">
            <mxRectangle width="150" height="30" as="alternateBounds" />
          </mxGeometry>
        </mxCell>
        <mxCell id="KhNQkySwgiJklhar0YiO-66" value="Billings" style="shape=table;startSize=30;container=1;collapsible=1;childLayout=tableLayout;fixedRows=1;rowLines=0;fontStyle=1;align=center;resizeLast=1;html=1;" parent="1" vertex="1">
          <mxGeometry x="-290" y="180" width="180" height="120" as="geometry" />
        </mxCell>
        <mxCell id="KhNQkySwgiJklhar0YiO-67" value="" style="shape=tableRow;horizontal=0;startSize=0;swimlaneHead=0;swimlaneBody=0;fillColor=none;collapsible=0;dropTarget=0;points=[[0,0.5],[1,0.5]];portConstraint=eastwest;top=0;left=0;right=0;bottom=1;" parent="KhNQkySwgiJklhar0YiO-66" vertex="1">
          <mxGeometry y="30" width="180" height="30" as="geometry" />
        </mxCell>
        <mxCell id="KhNQkySwgiJklhar0YiO-68" value="PK" style="shape=partialRectangle;connectable=0;fillColor=none;top=0;left=0;bottom=0;right=0;fontStyle=1;overflow=hidden;whiteSpace=wrap;html=1;" parent="KhNQkySwgiJklhar0YiO-67" vertex="1">
          <mxGeometry width="30" height="30" as="geometry">
            <mxRectangle width="30" height="30" as="alternateBounds" />
          </mxGeometry>
        </mxCell>
        <mxCell id="KhNQkySwgiJklhar0YiO-69" value="UniqueID" style="shape=partialRectangle;connectable=0;fillColor=none;top=0;left=0;bottom=0;right=0;align=left;spacingLeft=6;fontStyle=5;overflow=hidden;whiteSpace=wrap;html=1;" parent="KhNQkySwgiJklhar0YiO-67" vertex="1">
          <mxGeometry x="30" width="150" height="30" as="geometry">
            <mxRectangle width="150" height="30" as="alternateBounds" />
          </mxGeometry>
        </mxCell>
        <mxCell id="Ue_fEvQdMelFlZGZtrvL-4" value="" style="shape=tableRow;horizontal=0;startSize=0;swimlaneHead=0;swimlaneBody=0;fillColor=none;collapsible=0;dropTarget=0;points=[[0,0.5],[1,0.5]];portConstraint=eastwest;top=0;left=0;right=0;bottom=0;" vertex="1" parent="KhNQkySwgiJklhar0YiO-66">
          <mxGeometry y="60" width="180" height="30" as="geometry" />
        </mxCell>
        <mxCell id="Ue_fEvQdMelFlZGZtrvL-5" value="FK" style="shape=partialRectangle;connectable=0;fillColor=none;top=0;left=0;bottom=0;right=0;fontStyle=0;overflow=hidden;whiteSpace=wrap;html=1;" vertex="1" parent="Ue_fEvQdMelFlZGZtrvL-4">
          <mxGeometry width="30" height="30" as="geometry">
            <mxRectangle width="30" height="30" as="alternateBounds" />
          </mxGeometry>
        </mxCell>
        <mxCell id="Ue_fEvQdMelFlZGZtrvL-6" value="CustomerId" style="shape=partialRectangle;connectable=0;fillColor=none;top=0;left=0;bottom=0;right=0;align=left;spacingLeft=6;fontStyle=0;overflow=hidden;whiteSpace=wrap;html=1;" vertex="1" parent="Ue_fEvQdMelFlZGZtrvL-4">
          <mxGeometry x="30" width="150" height="30" as="geometry">
            <mxRectangle width="150" height="30" as="alternateBounds" />
          </mxGeometry>
        </mxCell>
        <mxCell id="KhNQkySwgiJklhar0YiO-73" value="" style="shape=tableRow;horizontal=0;startSize=0;swimlaneHead=0;swimlaneBody=0;fillColor=none;collapsible=0;dropTarget=0;points=[[0,0.5],[1,0.5]];portConstraint=eastwest;top=0;left=0;right=0;bottom=0;" parent="KhNQkySwgiJklhar0YiO-66" vertex="1">
          <mxGeometry y="90" width="180" height="30" as="geometry" />
        </mxCell>
        <mxCell id="KhNQkySwgiJklhar0YiO-74" value="" style="shape=partialRectangle;connectable=0;fillColor=none;top=0;left=0;bottom=0;right=0;editable=1;overflow=hidden;whiteSpace=wrap;html=1;" parent="KhNQkySwgiJklhar0YiO-73" vertex="1">
          <mxGeometry width="30" height="30" as="geometry">
            <mxRectangle width="30" height="30" as="alternateBounds" />
          </mxGeometry>
        </mxCell>
        <mxCell id="KhNQkySwgiJklhar0YiO-75" value="Discounts" style="shape=partialRectangle;connectable=0;fillColor=none;top=0;left=0;bottom=0;right=0;align=left;spacingLeft=6;overflow=hidden;whiteSpace=wrap;html=1;" parent="KhNQkySwgiJklhar0YiO-73" vertex="1">
          <mxGeometry x="30" width="150" height="30" as="geometry">
            <mxRectangle width="150" height="30" as="alternateBounds" />
          </mxGeometry>
        </mxCell>
        <mxCell id="npuYotQdPXIpSZ90aNdf-7" value="" style="edgeStyle=orthogonalEdgeStyle;fontSize=12;html=1;endArrow=ERzeroToOne;endFill=1;rounded=0;entryX=0;entryY=0.5;entryDx=0;entryDy=0;exitX=1;exitY=0.5;exitDx=0;exitDy=0;" parent="1" source="KhNQkySwgiJklhar0YiO-2" target="npuYotQdPXIpSZ90aNdf-1" edge="1">
          <mxGeometry width="100" height="100" relative="1" as="geometry">
            <mxPoint x="-400" y="620" as="sourcePoint" />
            <mxPoint x="-300" y="520" as="targetPoint" />
          </mxGeometry>
        </mxCell>
        <mxCell id="npuYotQdPXIpSZ90aNdf-8" value="" style="edgeStyle=orthogonalEdgeStyle;fontSize=12;html=1;endArrow=ERzeroToOne;endFill=1;rounded=0;entryX=0;entryY=0.5;entryDx=0;entryDy=0;exitX=1;exitY=0.5;exitDx=0;exitDy=0;" parent="1" source="KhNQkySwgiJklhar0YiO-2" target="npuYotQdPXIpSZ90aNdf-4" edge="1">
          <mxGeometry width="100" height="100" relative="1" as="geometry">
            <mxPoint x="-400" y="650" as="sourcePoint" />
            <mxPoint x="-300" y="550" as="targetPoint" />
          </mxGeometry>
        </mxCell>
        <mxCell id="npuYotQdPXIpSZ90aNdf-10" value="" style="edgeStyle=orthogonalEdgeStyle;fontSize=12;html=1;endArrow=ERmany;rounded=0;" parent="1" source="KhNQkySwgiJklhar0YiO-2" target="npuYotQdPXIpSZ90aNdf-13" edge="1">
          <mxGeometry width="100" height="100" relative="1" as="geometry">
            <mxPoint x="-30" y="600" as="sourcePoint" />
            <mxPoint x="70" y="500" as="targetPoint" />
          </mxGeometry>
        </mxCell>
        <mxCell id="npuYotQdPXIpSZ90aNdf-12" value="Payments" style="shape=table;startSize=30;container=1;collapsible=1;childLayout=tableLayout;fixedRows=1;rowLines=0;fontStyle=1;align=center;resizeLast=1;html=1;" parent="1" vertex="1">
          <mxGeometry x="-290" y="530" width="180" height="90" as="geometry" />
        </mxCell>
        <mxCell id="npuYotQdPXIpSZ90aNdf-13" value="" style="shape=tableRow;horizontal=0;startSize=0;swimlaneHead=0;swimlaneBody=0;fillColor=none;collapsible=0;dropTarget=0;points=[[0,0.5],[1,0.5]];portConstraint=eastwest;top=0;left=0;right=0;bottom=1;" parent="npuYotQdPXIpSZ90aNdf-12" vertex="1">
          <mxGeometry y="30" width="180" height="30" as="geometry" />
        </mxCell>
        <mxCell id="npuYotQdPXIpSZ90aNdf-14" value="PK" style="shape=partialRectangle;connectable=0;fillColor=none;top=0;left=0;bottom=0;right=0;fontStyle=1;overflow=hidden;whiteSpace=wrap;html=1;" parent="npuYotQdPXIpSZ90aNdf-13" vertex="1">
          <mxGeometry width="30" height="30" as="geometry">
            <mxRectangle width="30" height="30" as="alternateBounds" />
          </mxGeometry>
        </mxCell>
        <mxCell id="npuYotQdPXIpSZ90aNdf-15" value="UniqueID" style="shape=partialRectangle;connectable=0;fillColor=none;top=0;left=0;bottom=0;right=0;align=left;spacingLeft=6;fontStyle=5;overflow=hidden;whiteSpace=wrap;html=1;" parent="npuYotQdPXIpSZ90aNdf-13" vertex="1">
          <mxGeometry x="30" width="150" height="30" as="geometry">
            <mxRectangle width="150" height="30" as="alternateBounds" />
          </mxGeometry>
        </mxCell>
        <mxCell id="npuYotQdPXIpSZ90aNdf-25" value="" style="shape=tableRow;horizontal=0;startSize=0;swimlaneHead=0;swimlaneBody=0;fillColor=none;collapsible=0;dropTarget=0;points=[[0,0.5],[1,0.5]];portConstraint=eastwest;top=0;left=0;right=0;bottom=0;" parent="npuYotQdPXIpSZ90aNdf-12" vertex="1">
          <mxGeometry y="60" width="180" height="30" as="geometry" />
        </mxCell>
        <mxCell id="npuYotQdPXIpSZ90aNdf-26" value="FK" style="shape=partialRectangle;connectable=0;fillColor=none;top=0;left=0;bottom=0;right=0;fontStyle=0;overflow=hidden;whiteSpace=wrap;html=1;" parent="npuYotQdPXIpSZ90aNdf-25" vertex="1">
          <mxGeometry width="30" height="30" as="geometry">
            <mxRectangle width="30" height="30" as="alternateBounds" />
          </mxGeometry>
        </mxCell>
        <mxCell id="npuYotQdPXIpSZ90aNdf-27" value="CustomerId" style="shape=partialRectangle;connectable=0;fillColor=none;top=0;left=0;bottom=0;right=0;align=left;spacingLeft=6;fontStyle=0;overflow=hidden;whiteSpace=wrap;html=1;" parent="npuYotQdPXIpSZ90aNdf-25" vertex="1">
          <mxGeometry x="30" width="150" height="30" as="geometry">
            <mxRectangle width="150" height="30" as="alternateBounds" />
          </mxGeometry>
        </mxCell>
        <mxCell id="npuYotQdPXIpSZ90aNdf-32" value="" style="edgeStyle=orthogonalEdgeStyle;fontSize=12;html=1;endArrow=ERoneToMany;rounded=0;exitX=1;exitY=0.5;exitDx=0;exitDy=0;elbow=vertical;" parent="1" source="KhNQkySwgiJklhar0YiO-2" target="Ue_fEvQdMelFlZGZtrvL-4" edge="1">
          <mxGeometry width="100" height="100" relative="1" as="geometry">
            <mxPoint x="-310" y="470" as="sourcePoint" />
            <mxPoint x="-40" y="430" as="targetPoint" />
          </mxGeometry>
        </mxCell>
        <mxCell id="npuYotQdPXIpSZ90aNdf-34" value="BillingLines" style="shape=table;startSize=30;container=1;collapsible=1;childLayout=tableLayout;fixedRows=1;rowLines=0;fontStyle=1;align=center;resizeLast=1;html=1;" parent="1" vertex="1">
          <mxGeometry x="-40" y="180" width="180" height="120" as="geometry" />
        </mxCell>
        <mxCell id="npuYotQdPXIpSZ90aNdf-35" value="" style="shape=tableRow;horizontal=0;startSize=0;swimlaneHead=0;swimlaneBody=0;fillColor=none;collapsible=0;dropTarget=0;points=[[0,0.5],[1,0.5]];portConstraint=eastwest;top=0;left=0;right=0;bottom=1;" parent="npuYotQdPXIpSZ90aNdf-34" vertex="1">
          <mxGeometry y="30" width="180" height="30" as="geometry" />
        </mxCell>
        <mxCell id="npuYotQdPXIpSZ90aNdf-36" value="PK" style="shape=partialRectangle;connectable=0;fillColor=none;top=0;left=0;bottom=0;right=0;fontStyle=1;overflow=hidden;whiteSpace=wrap;html=1;" parent="npuYotQdPXIpSZ90aNdf-35" vertex="1">
          <mxGeometry width="30" height="30" as="geometry">
            <mxRectangle width="30" height="30" as="alternateBounds" />
          </mxGeometry>
        </mxCell>
        <mxCell id="npuYotQdPXIpSZ90aNdf-37" value="UniqueID" style="shape=partialRectangle;connectable=0;fillColor=none;top=0;left=0;bottom=0;right=0;align=left;spacingLeft=6;fontStyle=5;overflow=hidden;whiteSpace=wrap;html=1;" parent="npuYotQdPXIpSZ90aNdf-35" vertex="1">
          <mxGeometry x="30" width="150" height="30" as="geometry">
            <mxRectangle width="150" height="30" as="alternateBounds" />
          </mxGeometry>
        </mxCell>
        <mxCell id="Ue_fEvQdMelFlZGZtrvL-32" value="" style="shape=tableRow;horizontal=0;startSize=0;swimlaneHead=0;swimlaneBody=0;fillColor=none;collapsible=0;dropTarget=0;points=[[0,0.5],[1,0.5]];portConstraint=eastwest;top=0;left=0;right=0;bottom=0;" vertex="1" parent="npuYotQdPXIpSZ90aNdf-34">
          <mxGeometry y="60" width="180" height="30" as="geometry" />
        </mxCell>
        <mxCell id="Ue_fEvQdMelFlZGZtrvL-33" value="FK" style="shape=partialRectangle;connectable=0;fillColor=none;top=0;left=0;bottom=0;right=0;fontStyle=0;overflow=hidden;whiteSpace=wrap;html=1;" vertex="1" parent="Ue_fEvQdMelFlZGZtrvL-32">
          <mxGeometry width="30" height="30" as="geometry">
            <mxRectangle width="30" height="30" as="alternateBounds" />
          </mxGeometry>
        </mxCell>
        <mxCell id="Ue_fEvQdMelFlZGZtrvL-34" value="BillingId" style="shape=partialRectangle;connectable=0;fillColor=none;top=0;left=0;bottom=0;right=0;align=left;spacingLeft=6;fontStyle=0;overflow=hidden;whiteSpace=wrap;html=1;" vertex="1" parent="Ue_fEvQdMelFlZGZtrvL-32">
          <mxGeometry x="30" width="150" height="30" as="geometry">
            <mxRectangle width="150" height="30" as="alternateBounds" />
          </mxGeometry>
        </mxCell>
        <mxCell id="npuYotQdPXIpSZ90aNdf-38" value="" style="shape=tableRow;horizontal=0;startSize=0;swimlaneHead=0;swimlaneBody=0;fillColor=none;collapsible=0;dropTarget=0;points=[[0,0.5],[1,0.5]];portConstraint=eastwest;top=0;left=0;right=0;bottom=0;" parent="npuYotQdPXIpSZ90aNdf-34" vertex="1">
          <mxGeometry y="90" width="180" height="30" as="geometry" />
        </mxCell>
        <mxCell id="npuYotQdPXIpSZ90aNdf-39" value="" style="shape=partialRectangle;connectable=0;fillColor=none;top=0;left=0;bottom=0;right=0;editable=1;overflow=hidden;whiteSpace=wrap;html=1;" parent="npuYotQdPXIpSZ90aNdf-38" vertex="1">
          <mxGeometry width="30" height="30" as="geometry">
            <mxRectangle width="30" height="30" as="alternateBounds" />
          </mxGeometry>
        </mxCell>
        <mxCell id="npuYotQdPXIpSZ90aNdf-40" value="ProductId" style="shape=partialRectangle;connectable=0;fillColor=none;top=0;left=0;bottom=0;right=0;align=left;spacingLeft=6;overflow=hidden;whiteSpace=wrap;html=1;" parent="npuYotQdPXIpSZ90aNdf-38" vertex="1">
          <mxGeometry x="30" width="150" height="30" as="geometry">
            <mxRectangle width="150" height="30" as="alternateBounds" />
          </mxGeometry>
        </mxCell>
        <mxCell id="npuYotQdPXIpSZ90aNdf-49" value="Products" style="shape=table;startSize=30;container=1;collapsible=1;childLayout=tableLayout;fixedRows=1;rowLines=0;fontStyle=1;align=center;resizeLast=1;html=1;" parent="1" vertex="1">
          <mxGeometry x="210" y="240" width="180" height="60" as="geometry" />
        </mxCell>
        <mxCell id="npuYotQdPXIpSZ90aNdf-50" value="" style="shape=tableRow;horizontal=0;startSize=0;swimlaneHead=0;swimlaneBody=0;fillColor=none;collapsible=0;dropTarget=0;points=[[0,0.5],[1,0.5]];portConstraint=eastwest;top=0;left=0;right=0;bottom=1;" parent="npuYotQdPXIpSZ90aNdf-49" vertex="1">
          <mxGeometry y="30" width="180" height="30" as="geometry" />
        </mxCell>
        <mxCell id="npuYotQdPXIpSZ90aNdf-51" value="PK" style="shape=partialRectangle;connectable=0;fillColor=none;top=0;left=0;bottom=0;right=0;fontStyle=1;overflow=hidden;whiteSpace=wrap;html=1;" parent="npuYotQdPXIpSZ90aNdf-50" vertex="1">
          <mxGeometry width="30" height="30" as="geometry">
            <mxRectangle width="30" height="30" as="alternateBounds" />
          </mxGeometry>
        </mxCell>
        <mxCell id="npuYotQdPXIpSZ90aNdf-52" value="UniqueID" style="shape=partialRectangle;connectable=0;fillColor=none;top=0;left=0;bottom=0;right=0;align=left;spacingLeft=6;fontStyle=5;overflow=hidden;whiteSpace=wrap;html=1;" parent="npuYotQdPXIpSZ90aNdf-50" vertex="1">
          <mxGeometry x="30" width="150" height="30" as="geometry">
            <mxRectangle width="150" height="30" as="alternateBounds" />
          </mxGeometry>
        </mxCell>
        <mxCell id="npuYotQdPXIpSZ90aNdf-63" value="" style="edgeStyle=orthogonalEdgeStyle;fontSize=12;html=1;endArrow=ERzeroToMany;startArrow=ERmandOne;rounded=0;" parent="1" source="npuYotQdPXIpSZ90aNdf-50" target="npuYotQdPXIpSZ90aNdf-38" edge="1">
          <mxGeometry width="100" height="100" relative="1" as="geometry">
            <mxPoint x="-160" y="740" as="sourcePoint" />
            <mxPoint x="-60" y="640" as="targetPoint" />
          </mxGeometry>
        </mxCell>
        <mxCell id="jjh7h56Zf3JrQiqmrdGM-5" value="Discounts" style="shape=table;startSize=30;container=1;collapsible=1;childLayout=tableLayout;fixedRows=1;rowLines=0;fontStyle=1;align=center;resizeLast=1;html=1;" parent="1" vertex="1">
          <mxGeometry x="220" y="400" width="180" height="90" as="geometry" />
        </mxCell>
        <mxCell id="jjh7h56Zf3JrQiqmrdGM-6" value="" style="shape=tableRow;horizontal=0;startSize=0;swimlaneHead=0;swimlaneBody=0;fillColor=none;collapsible=0;dropTarget=0;points=[[0,0.5],[1,0.5]];portConstraint=eastwest;top=0;left=0;right=0;bottom=1;" parent="jjh7h56Zf3JrQiqmrdGM-5" vertex="1">
          <mxGeometry y="30" width="180" height="30" as="geometry" />
        </mxCell>
        <mxCell id="jjh7h56Zf3JrQiqmrdGM-7" value="PK" style="shape=partialRectangle;connectable=0;fillColor=none;top=0;left=0;bottom=0;right=0;fontStyle=1;overflow=hidden;whiteSpace=wrap;html=1;" parent="jjh7h56Zf3JrQiqmrdGM-6" vertex="1">
          <mxGeometry width="30" height="30" as="geometry">
            <mxRectangle width="30" height="30" as="alternateBounds" />
          </mxGeometry>
        </mxCell>
        <mxCell id="jjh7h56Zf3JrQiqmrdGM-8" value="UniqueID" style="shape=partialRectangle;connectable=0;fillColor=none;top=0;left=0;bottom=0;right=0;align=left;spacingLeft=6;fontStyle=5;overflow=hidden;whiteSpace=wrap;html=1;" parent="jjh7h56Zf3JrQiqmrdGM-6" vertex="1">
          <mxGeometry x="30" width="150" height="30" as="geometry">
            <mxRectangle width="150" height="30" as="alternateBounds" />
          </mxGeometry>
        </mxCell>
        <mxCell id="Ue_fEvQdMelFlZGZtrvL-29" value="" style="shape=tableRow;horizontal=0;startSize=0;swimlaneHead=0;swimlaneBody=0;fillColor=none;collapsible=0;dropTarget=0;points=[[0,0.5],[1,0.5]];portConstraint=eastwest;top=0;left=0;right=0;bottom=0;" vertex="1" parent="jjh7h56Zf3JrQiqmrdGM-5">
          <mxGeometry y="60" width="180" height="30" as="geometry" />
        </mxCell>
        <mxCell id="Ue_fEvQdMelFlZGZtrvL-30" value="FK" style="shape=partialRectangle;connectable=0;fillColor=none;top=0;left=0;bottom=0;right=0;fontStyle=0;overflow=hidden;whiteSpace=wrap;html=1;" vertex="1" parent="Ue_fEvQdMelFlZGZtrvL-29">
          <mxGeometry width="30" height="30" as="geometry">
            <mxRectangle width="30" height="30" as="alternateBounds" />
          </mxGeometry>
        </mxCell>
        <mxCell id="Ue_fEvQdMelFlZGZtrvL-31" value="DiscountPoliciesId" style="shape=partialRectangle;connectable=0;fillColor=none;top=0;left=0;bottom=0;right=0;align=left;spacingLeft=6;fontStyle=0;overflow=hidden;whiteSpace=wrap;html=1;" vertex="1" parent="Ue_fEvQdMelFlZGZtrvL-29">
          <mxGeometry x="30" width="150" height="30" as="geometry">
            <mxRectangle width="150" height="30" as="alternateBounds" />
          </mxGeometry>
        </mxCell>
        <mxCell id="Ue_fEvQdMelFlZGZtrvL-7" value="DiscountPolicies" style="shape=table;startSize=30;container=1;collapsible=1;childLayout=tableLayout;fixedRows=1;rowLines=0;fontStyle=1;align=center;resizeLast=1;html=1;" vertex="1" parent="1">
          <mxGeometry x="-40" y="530" width="180" height="90" as="geometry" />
        </mxCell>
        <mxCell id="Ue_fEvQdMelFlZGZtrvL-8" value="" style="shape=tableRow;horizontal=0;startSize=0;swimlaneHead=0;swimlaneBody=0;fillColor=none;collapsible=0;dropTarget=0;points=[[0,0.5],[1,0.5]];portConstraint=eastwest;top=0;left=0;right=0;bottom=1;" vertex="1" parent="Ue_fEvQdMelFlZGZtrvL-7">
          <mxGeometry y="30" width="180" height="30" as="geometry" />
        </mxCell>
        <mxCell id="Ue_fEvQdMelFlZGZtrvL-9" value="PK" style="shape=partialRectangle;connectable=0;fillColor=none;top=0;left=0;bottom=0;right=0;fontStyle=1;overflow=hidden;whiteSpace=wrap;html=1;" vertex="1" parent="Ue_fEvQdMelFlZGZtrvL-8">
          <mxGeometry width="30" height="30" as="geometry">
            <mxRectangle width="30" height="30" as="alternateBounds" />
          </mxGeometry>
        </mxCell>
        <mxCell id="Ue_fEvQdMelFlZGZtrvL-10" value="UniqueID" style="shape=partialRectangle;connectable=0;fillColor=none;top=0;left=0;bottom=0;right=0;align=left;spacingLeft=6;fontStyle=5;overflow=hidden;whiteSpace=wrap;html=1;" vertex="1" parent="Ue_fEvQdMelFlZGZtrvL-8">
          <mxGeometry x="30" width="150" height="30" as="geometry">
            <mxRectangle width="150" height="30" as="alternateBounds" />
          </mxGeometry>
        </mxCell>
        <mxCell id="Ue_fEvQdMelFlZGZtrvL-24" value="" style="shape=tableRow;horizontal=0;startSize=0;swimlaneHead=0;swimlaneBody=0;fillColor=none;collapsible=0;dropTarget=0;points=[[0,0.5],[1,0.5]];portConstraint=eastwest;top=0;left=0;right=0;bottom=0;" vertex="1" parent="Ue_fEvQdMelFlZGZtrvL-7">
          <mxGeometry y="60" width="180" height="30" as="geometry" />
        </mxCell>
        <mxCell id="Ue_fEvQdMelFlZGZtrvL-25" value="" style="shape=partialRectangle;connectable=0;fillColor=none;top=0;left=0;bottom=0;right=0;editable=1;overflow=hidden;" vertex="1" parent="Ue_fEvQdMelFlZGZtrvL-24">
          <mxGeometry width="30" height="30" as="geometry">
            <mxRectangle width="30" height="30" as="alternateBounds" />
          </mxGeometry>
        </mxCell>
        <mxCell id="Ue_fEvQdMelFlZGZtrvL-26" value="CustomerType" style="shape=partialRectangle;connectable=0;fillColor=none;top=0;left=0;bottom=0;right=0;align=left;spacingLeft=6;overflow=hidden;" vertex="1" parent="Ue_fEvQdMelFlZGZtrvL-24">
          <mxGeometry x="30" width="150" height="30" as="geometry">
            <mxRectangle width="150" height="30" as="alternateBounds" />
          </mxGeometry>
        </mxCell>
        <mxCell id="Ue_fEvQdMelFlZGZtrvL-27" value="" style="fontSize=12;html=1;endArrow=ERzeroToMany;startArrow=ERmandOne;rounded=0;edgeStyle=orthogonalEdgeStyle;" edge="1" parent="1" source="Ue_fEvQdMelFlZGZtrvL-8" target="Ue_fEvQdMelFlZGZtrvL-29">
          <mxGeometry width="100" height="100" relative="1" as="geometry">
            <mxPoint x="-40" y="590" as="sourcePoint" />
            <mxPoint x="60" y="490" as="targetPoint" />
          </mxGeometry>
        </mxCell>
        <mxCell id="Ue_fEvQdMelFlZGZtrvL-28" value="" style="edgeStyle=orthogonalEdgeStyle;fontSize=12;html=1;endArrow=ERmany;rounded=0;" edge="1" parent="1" source="KhNQkySwgiJklhar0YiO-67" target="Ue_fEvQdMelFlZGZtrvL-37">
          <mxGeometry width="100" height="100" relative="1" as="geometry">
            <mxPoint x="-30" y="550" as="sourcePoint" />
            <mxPoint x="70" y="450" as="targetPoint" />
          </mxGeometry>
        </mxCell>
        <mxCell id="Ue_fEvQdMelFlZGZtrvL-36" value="Billing_Discount" style="shape=table;startSize=30;container=1;collapsible=1;childLayout=tableLayout;fixedRows=1;rowLines=0;fontStyle=1;align=center;resizeLast=1;html=1;whiteSpace=wrap;" vertex="1" parent="1">
          <mxGeometry x="-40" y="370" width="180" height="90" as="geometry" />
        </mxCell>
        <mxCell id="Ue_fEvQdMelFlZGZtrvL-37" value="" style="shape=tableRow;horizontal=0;startSize=0;swimlaneHead=0;swimlaneBody=0;fillColor=none;collapsible=0;dropTarget=0;points=[[0,0.5],[1,0.5]];portConstraint=eastwest;top=0;left=0;right=0;bottom=0;html=1;" vertex="1" parent="Ue_fEvQdMelFlZGZtrvL-36">
          <mxGeometry y="30" width="180" height="30" as="geometry" />
        </mxCell>
        <mxCell id="Ue_fEvQdMelFlZGZtrvL-38" value="PK,FK1" style="shape=partialRectangle;connectable=0;fillColor=none;top=0;left=0;bottom=0;right=0;fontStyle=1;overflow=hidden;html=1;whiteSpace=wrap;" vertex="1" parent="Ue_fEvQdMelFlZGZtrvL-37">
          <mxGeometry width="60" height="30" as="geometry">
            <mxRectangle width="60" height="30" as="alternateBounds" />
          </mxGeometry>
        </mxCell>
        <mxCell id="Ue_fEvQdMelFlZGZtrvL-39" value="BillingID" style="shape=partialRectangle;connectable=0;fillColor=none;top=0;left=0;bottom=0;right=0;align=left;spacingLeft=6;fontStyle=5;overflow=hidden;html=1;whiteSpace=wrap;" vertex="1" parent="Ue_fEvQdMelFlZGZtrvL-37">
          <mxGeometry x="60" width="120" height="30" as="geometry">
            <mxRectangle width="120" height="30" as="alternateBounds" />
          </mxGeometry>
        </mxCell>
        <mxCell id="Ue_fEvQdMelFlZGZtrvL-40" value="" style="shape=tableRow;horizontal=0;startSize=0;swimlaneHead=0;swimlaneBody=0;fillColor=none;collapsible=0;dropTarget=0;points=[[0,0.5],[1,0.5]];portConstraint=eastwest;top=0;left=0;right=0;bottom=1;html=1;" vertex="1" parent="Ue_fEvQdMelFlZGZtrvL-36">
          <mxGeometry y="60" width="180" height="30" as="geometry" />
        </mxCell>
        <mxCell id="Ue_fEvQdMelFlZGZtrvL-41" value="PK,FK2" style="shape=partialRectangle;connectable=0;fillColor=none;top=0;left=0;bottom=0;right=0;fontStyle=1;overflow=hidden;html=1;whiteSpace=wrap;" vertex="1" parent="Ue_fEvQdMelFlZGZtrvL-40">
          <mxGeometry width="60" height="30" as="geometry">
            <mxRectangle width="60" height="30" as="alternateBounds" />
          </mxGeometry>
        </mxCell>
        <mxCell id="Ue_fEvQdMelFlZGZtrvL-42" value="DiscountID" style="shape=partialRectangle;connectable=0;fillColor=none;top=0;left=0;bottom=0;right=0;align=left;spacingLeft=6;fontStyle=5;overflow=hidden;html=1;whiteSpace=wrap;" vertex="1" parent="Ue_fEvQdMelFlZGZtrvL-40">
          <mxGeometry x="60" width="120" height="30" as="geometry">
            <mxRectangle width="120" height="30" as="alternateBounds" />
          </mxGeometry>
        </mxCell>
        <mxCell id="Ue_fEvQdMelFlZGZtrvL-49" value="" style="edgeStyle=orthogonalEdgeStyle;fontSize=12;html=1;endArrow=ERmany;rounded=0;" edge="1" parent="1" source="jjh7h56Zf3JrQiqmrdGM-6" target="Ue_fEvQdMelFlZGZtrvL-40">
          <mxGeometry width="100" height="100" relative="1" as="geometry">
            <mxPoint x="-10" y="590" as="sourcePoint" />
            <mxPoint x="90" y="490" as="targetPoint" />
          </mxGeometry>
        </mxCell>
        <mxCell id="Ue_fEvQdMelFlZGZtrvL-51" value="" style="edgeStyle=orthogonalEdgeStyle;fontSize=12;html=1;endArrow=ERoneToMany;rounded=0;" edge="1" parent="1" source="KhNQkySwgiJklhar0YiO-67" target="Ue_fEvQdMelFlZGZtrvL-32">
          <mxGeometry width="100" height="100" relative="1" as="geometry">
            <mxPoint x="-410" y="280" as="sourcePoint" />
            <mxPoint x="-310" y="180" as="targetPoint" />
          </mxGeometry>
        </mxCell>
      </root>
    </mxGraphModel>
  </diagram>
  <diagram id="-0w2JliviOSKXYXAW9pU" name="UML">
    <mxGraphModel dx="2895" dy="995" grid="1" gridSize="10" guides="1" tooltips="1" connect="1" arrows="1" fold="1" page="1" pageScale="1" pageWidth="827" pageHeight="1169" math="0" shadow="0">
      <root>
        <mxCell id="0" />
        <mxCell id="1" parent="0" />
        <mxCell id="eQKK8pRcJmVTErWF50KW-58" value="Application" style="verticalAlign=top;align=left;spacingTop=8;spacingLeft=2;spacingRight=12;shape=cube;size=10;direction=south;fontStyle=4;html=1;whiteSpace=wrap;fillColor=default;strokeColor=#b85450;gradientColor=none;" parent="1" vertex="1">
          <mxGeometry x="-1430" y="280" width="1630" height="720" as="geometry" />
        </mxCell>
        <mxCell id="Cr3UPspHoJoLUYjZn0Xs-1" value="Domain" style="verticalAlign=top;align=left;spacingTop=8;spacingLeft=2;spacingRight=12;shape=cube;size=10;direction=south;fontStyle=4;html=1;whiteSpace=wrap;fillColor=none;strokeColor=#82b366;" parent="1" vertex="1">
          <mxGeometry x="-470" y="320" width="610" height="630" as="geometry" />
        </mxCell>
        <mxCell id="16kLuzmeFWq6vYBoowsL-6" value="Customer" style="swimlane;fontStyle=1;align=center;verticalAlign=top;childLayout=stackLayout;horizontal=1;startSize=26;horizontalStack=0;resizeParent=1;resizeParentMax=0;resizeLast=0;collapsible=1;marginBottom=0;whiteSpace=wrap;html=1;" parent="1" vertex="1">
          <mxGeometry x="-340" y="650" width="220" height="112" as="geometry" />
        </mxCell>
        <mxCell id="16kLuzmeFWq6vYBoowsL-10" value="+&amp;nbsp;CustomerTypeEnum" style="text;strokeColor=none;fillColor=none;align=left;verticalAlign=top;spacingLeft=4;spacingRight=4;overflow=hidden;rotatable=0;points=[[0,0.5],[1,0.5]];portConstraint=eastwest;whiteSpace=wrap;html=1;" parent="16kLuzmeFWq6vYBoowsL-6" vertex="1">
          <mxGeometry y="26" width="220" height="26" as="geometry" />
        </mxCell>
        <mxCell id="16kLuzmeFWq6vYBoowsL-7" value="+&amp;nbsp;CustomerStatusEnum" style="text;strokeColor=none;fillColor=none;align=left;verticalAlign=top;spacingLeft=4;spacingRight=4;overflow=hidden;rotatable=0;points=[[0,0.5],[1,0.5]];portConstraint=eastwest;whiteSpace=wrap;html=1;" parent="16kLuzmeFWq6vYBoowsL-6" vertex="1">
          <mxGeometry y="52" width="220" height="26" as="geometry" />
        </mxCell>
        <mxCell id="16kLuzmeFWq6vYBoowsL-13" value="+ email" style="text;strokeColor=none;fillColor=none;align=left;verticalAlign=top;spacingLeft=4;spacingRight=4;overflow=hidden;rotatable=0;points=[[0,0.5],[1,0.5]];portConstraint=eastwest;whiteSpace=wrap;html=1;" parent="16kLuzmeFWq6vYBoowsL-6" vertex="1">
          <mxGeometry y="78" width="220" height="26" as="geometry" />
        </mxCell>
        <mxCell id="16kLuzmeFWq6vYBoowsL-8" value="" style="line;strokeWidth=1;fillColor=none;align=left;verticalAlign=middle;spacingTop=-1;spacingLeft=3;spacingRight=3;rotatable=0;labelPosition=right;points=[];portConstraint=eastwest;strokeColor=inherit;" parent="16kLuzmeFWq6vYBoowsL-6" vertex="1">
          <mxGeometry y="104" width="220" height="8" as="geometry" />
        </mxCell>
        <mxCell id="NSJX-KFQLFrf-1lbHb_r-1" value="BillingLine" style="swimlane;fontStyle=1;align=center;verticalAlign=top;childLayout=stackLayout;horizontal=1;startSize=26;horizontalStack=0;resizeParent=1;resizeParentMax=0;resizeLast=0;collapsible=1;marginBottom=0;whiteSpace=wrap;html=1;" parent="1" vertex="1">
          <mxGeometry x="1020" y="688" width="160" height="86" as="geometry" />
        </mxCell>
        <mxCell id="NSJX-KFQLFrf-1lbHb_r-2" value="+ IdForfait" style="text;strokeColor=none;fillColor=none;align=left;verticalAlign=top;spacingLeft=4;spacingRight=4;overflow=hidden;rotatable=0;points=[[0,0.5],[1,0.5]];portConstraint=eastwest;whiteSpace=wrap;html=1;" parent="NSJX-KFQLFrf-1lbHb_r-1" vertex="1">
          <mxGeometry y="26" width="160" height="26" as="geometry" />
        </mxCell>
        <mxCell id="NSJX-KFQLFrf-1lbHb_r-3" value="" style="line;strokeWidth=1;fillColor=none;align=left;verticalAlign=middle;spacingTop=-1;spacingLeft=3;spacingRight=3;rotatable=0;labelPosition=right;points=[];portConstraint=eastwest;strokeColor=inherit;" parent="NSJX-KFQLFrf-1lbHb_r-1" vertex="1">
          <mxGeometry y="52" width="160" height="8" as="geometry" />
        </mxCell>
        <mxCell id="NSJX-KFQLFrf-1lbHb_r-4" value="+ method(type): type" style="text;strokeColor=none;fillColor=none;align=left;verticalAlign=top;spacingLeft=4;spacingRight=4;overflow=hidden;rotatable=0;points=[[0,0.5],[1,0.5]];portConstraint=eastwest;whiteSpace=wrap;html=1;" parent="NSJX-KFQLFrf-1lbHb_r-1" vertex="1">
          <mxGeometry y="60" width="160" height="26" as="geometry" />
        </mxCell>
        <mxCell id="NSJX-KFQLFrf-1lbHb_r-5" value="Product" style="swimlane;fontStyle=1;align=center;verticalAlign=top;childLayout=stackLayout;horizontal=1;startSize=26;horizontalStack=0;resizeParent=1;resizeParentMax=0;resizeLast=0;collapsible=1;marginBottom=0;whiteSpace=wrap;html=1;" parent="1" vertex="1">
          <mxGeometry x="1020" y="506" width="160" height="86" as="geometry" />
        </mxCell>
        <mxCell id="NSJX-KFQLFrf-1lbHb_r-6" value="+ dateDeFacturation" style="text;strokeColor=none;fillColor=none;align=left;verticalAlign=top;spacingLeft=4;spacingRight=4;overflow=hidden;rotatable=0;points=[[0,0.5],[1,0.5]];portConstraint=eastwest;whiteSpace=wrap;html=1;" parent="NSJX-KFQLFrf-1lbHb_r-5" vertex="1">
          <mxGeometry y="26" width="160" height="26" as="geometry" />
        </mxCell>
        <mxCell id="NSJX-KFQLFrf-1lbHb_r-7" value="" style="line;strokeWidth=1;fillColor=none;align=left;verticalAlign=middle;spacingTop=-1;spacingLeft=3;spacingRight=3;rotatable=0;labelPosition=right;points=[];portConstraint=eastwest;strokeColor=inherit;" parent="NSJX-KFQLFrf-1lbHb_r-5" vertex="1">
          <mxGeometry y="52" width="160" height="8" as="geometry" />
        </mxCell>
        <mxCell id="NSJX-KFQLFrf-1lbHb_r-8" value="+ method(type): type" style="text;strokeColor=none;fillColor=none;align=left;verticalAlign=top;spacingLeft=4;spacingRight=4;overflow=hidden;rotatable=0;points=[[0,0.5],[1,0.5]];portConstraint=eastwest;whiteSpace=wrap;html=1;" parent="NSJX-KFQLFrf-1lbHb_r-5" vertex="1">
          <mxGeometry y="60" width="160" height="26" as="geometry" />
        </mxCell>
        <mxCell id="NSJX-KFQLFrf-1lbHb_r-13" value="Payment" style="swimlane;fontStyle=1;align=center;verticalAlign=top;childLayout=stackLayout;horizontal=1;startSize=26;horizontalStack=0;resizeParent=1;resizeParentMax=0;resizeLast=0;collapsible=1;marginBottom=0;whiteSpace=wrap;html=1;" parent="1" vertex="1">
          <mxGeometry x="910" y="366" width="160" height="86" as="geometry" />
        </mxCell>
        <mxCell id="NSJX-KFQLFrf-1lbHb_r-14" value="+ field: type" style="text;strokeColor=none;fillColor=none;align=left;verticalAlign=top;spacingLeft=4;spacingRight=4;overflow=hidden;rotatable=0;points=[[0,0.5],[1,0.5]];portConstraint=eastwest;whiteSpace=wrap;html=1;" parent="NSJX-KFQLFrf-1lbHb_r-13" vertex="1">
          <mxGeometry y="26" width="160" height="26" as="geometry" />
        </mxCell>
        <mxCell id="NSJX-KFQLFrf-1lbHb_r-15" value="" style="line;strokeWidth=1;fillColor=none;align=left;verticalAlign=middle;spacingTop=-1;spacingLeft=3;spacingRight=3;rotatable=0;labelPosition=right;points=[];portConstraint=eastwest;strokeColor=inherit;" parent="NSJX-KFQLFrf-1lbHb_r-13" vertex="1">
          <mxGeometry y="52" width="160" height="8" as="geometry" />
        </mxCell>
        <mxCell id="NSJX-KFQLFrf-1lbHb_r-16" value="+ method(type): type" style="text;strokeColor=none;fillColor=none;align=left;verticalAlign=top;spacingLeft=4;spacingRight=4;overflow=hidden;rotatable=0;points=[[0,0.5],[1,0.5]];portConstraint=eastwest;whiteSpace=wrap;html=1;" parent="NSJX-KFQLFrf-1lbHb_r-13" vertex="1">
          <mxGeometry y="60" width="160" height="26" as="geometry" />
        </mxCell>
        <mxCell id="wSA2fDMpjoK8iHs9JemQ-5" value="DiscountPolicy" style="swimlane;fontStyle=1;align=center;verticalAlign=top;childLayout=stackLayout;horizontal=1;startSize=26;horizontalStack=0;resizeParent=1;resizeParentMax=0;resizeLast=0;collapsible=1;marginBottom=0;whiteSpace=wrap;html=1;" parent="1" vertex="1">
          <mxGeometry x="1140" y="350" width="160" height="86" as="geometry" />
        </mxCell>
        <mxCell id="wSA2fDMpjoK8iHs9JemQ-6" value="+ field: type" style="text;strokeColor=none;fillColor=none;align=left;verticalAlign=top;spacingLeft=4;spacingRight=4;overflow=hidden;rotatable=0;points=[[0,0.5],[1,0.5]];portConstraint=eastwest;whiteSpace=wrap;html=1;" parent="wSA2fDMpjoK8iHs9JemQ-5" vertex="1">
          <mxGeometry y="26" width="160" height="26" as="geometry" />
        </mxCell>
        <mxCell id="wSA2fDMpjoK8iHs9JemQ-7" value="" style="line;strokeWidth=1;fillColor=none;align=left;verticalAlign=middle;spacingTop=-1;spacingLeft=3;spacingRight=3;rotatable=0;labelPosition=right;points=[];portConstraint=eastwest;strokeColor=inherit;" parent="wSA2fDMpjoK8iHs9JemQ-5" vertex="1">
          <mxGeometry y="52" width="160" height="8" as="geometry" />
        </mxCell>
        <mxCell id="wSA2fDMpjoK8iHs9JemQ-8" value="+ method(type): type" style="text;strokeColor=none;fillColor=none;align=left;verticalAlign=top;spacingLeft=4;spacingRight=4;overflow=hidden;rotatable=0;points=[[0,0.5],[1,0.5]];portConstraint=eastwest;whiteSpace=wrap;html=1;" parent="wSA2fDMpjoK8iHs9JemQ-5" vertex="1">
          <mxGeometry y="60" width="160" height="26" as="geometry" />
        </mxCell>
        <mxCell id="vJObKhTMlozAfTAqeUGI-1" value="CustomerDetails" style="swimlane;fontStyle=1;align=center;verticalAlign=top;childLayout=stackLayout;horizontal=1;startSize=26;horizontalStack=0;resizeParent=1;resizeParentMax=0;resizeLast=0;collapsible=1;marginBottom=0;whiteSpace=wrap;html=1;" parent="1" vertex="1">
          <mxGeometry x="-70" y="350" width="160" height="164" as="geometry" />
        </mxCell>
        <mxCell id="fR-1liaUMTlWW7amwrhS-11" value="+ Street" style="text;strokeColor=none;fillColor=none;align=left;verticalAlign=top;spacingLeft=4;spacingRight=4;overflow=hidden;rotatable=0;points=[[0,0.5],[1,0.5]];portConstraint=eastwest;whiteSpace=wrap;html=1;" parent="vJObKhTMlozAfTAqeUGI-1" vertex="1">
          <mxGeometry y="26" width="160" height="26" as="geometry" />
        </mxCell>
        <mxCell id="fR-1liaUMTlWW7amwrhS-14" value="+ City" style="text;strokeColor=none;fillColor=none;align=left;verticalAlign=top;spacingLeft=4;spacingRight=4;overflow=hidden;rotatable=0;points=[[0,0.5],[1,0.5]];portConstraint=eastwest;whiteSpace=wrap;html=1;" parent="vJObKhTMlozAfTAqeUGI-1" vertex="1">
          <mxGeometry y="52" width="160" height="26" as="geometry" />
        </mxCell>
        <mxCell id="fR-1liaUMTlWW7amwrhS-13" value="+ PostalCode" style="text;strokeColor=none;fillColor=none;align=left;verticalAlign=top;spacingLeft=4;spacingRight=4;overflow=hidden;rotatable=0;points=[[0,0.5],[1,0.5]];portConstraint=eastwest;whiteSpace=wrap;html=1;" parent="vJObKhTMlozAfTAqeUGI-1" vertex="1">
          <mxGeometry y="78" width="160" height="26" as="geometry" />
        </mxCell>
        <mxCell id="fR-1liaUMTlWW7amwrhS-12" value="+ State" style="text;strokeColor=none;fillColor=none;align=left;verticalAlign=top;spacingLeft=4;spacingRight=4;overflow=hidden;rotatable=0;points=[[0,0.5],[1,0.5]];portConstraint=eastwest;whiteSpace=wrap;html=1;" parent="vJObKhTMlozAfTAqeUGI-1" vertex="1">
          <mxGeometry y="104" width="160" height="26" as="geometry" />
        </mxCell>
        <mxCell id="vJObKhTMlozAfTAqeUGI-2" value="+ Country" style="text;strokeColor=none;fillColor=none;align=left;verticalAlign=top;spacingLeft=4;spacingRight=4;overflow=hidden;rotatable=0;points=[[0,0.5],[1,0.5]];portConstraint=eastwest;whiteSpace=wrap;html=1;" parent="vJObKhTMlozAfTAqeUGI-1" vertex="1">
          <mxGeometry y="130" width="160" height="26" as="geometry" />
        </mxCell>
        <mxCell id="vJObKhTMlozAfTAqeUGI-3" value="" style="line;strokeWidth=1;fillColor=none;align=left;verticalAlign=middle;spacingTop=-1;spacingLeft=3;spacingRight=3;rotatable=0;labelPosition=right;points=[];portConstraint=eastwest;strokeColor=inherit;" parent="vJObKhTMlozAfTAqeUGI-1" vertex="1">
          <mxGeometry y="156" width="160" height="8" as="geometry" />
        </mxCell>
        <mxCell id="04u1avj6cLKQ7NKpXe60-1" value="Billing" style="swimlane;fontStyle=1;align=center;verticalAlign=top;childLayout=stackLayout;horizontal=1;startSize=26;horizontalStack=0;resizeParent=1;resizeParentMax=0;resizeLast=0;collapsible=1;marginBottom=0;whiteSpace=wrap;html=1;" parent="1" vertex="1">
          <mxGeometry x="840" y="736" width="160" height="86" as="geometry" />
        </mxCell>
        <mxCell id="04u1avj6cLKQ7NKpXe60-2" value="+ field: type" style="text;strokeColor=none;fillColor=none;align=left;verticalAlign=top;spacingLeft=4;spacingRight=4;overflow=hidden;rotatable=0;points=[[0,0.5],[1,0.5]];portConstraint=eastwest;whiteSpace=wrap;html=1;" parent="04u1avj6cLKQ7NKpXe60-1" vertex="1">
          <mxGeometry y="26" width="160" height="26" as="geometry" />
        </mxCell>
        <mxCell id="04u1avj6cLKQ7NKpXe60-3" value="" style="line;strokeWidth=1;fillColor=none;align=left;verticalAlign=middle;spacingTop=-1;spacingLeft=3;spacingRight=3;rotatable=0;labelPosition=right;points=[];portConstraint=eastwest;strokeColor=inherit;" parent="04u1avj6cLKQ7NKpXe60-1" vertex="1">
          <mxGeometry y="52" width="160" height="8" as="geometry" />
        </mxCell>
        <mxCell id="04u1avj6cLKQ7NKpXe60-4" value="+ method(type): type" style="text;strokeColor=none;fillColor=none;align=left;verticalAlign=top;spacingLeft=4;spacingRight=4;overflow=hidden;rotatable=0;points=[[0,0.5],[1,0.5]];portConstraint=eastwest;whiteSpace=wrap;html=1;" parent="04u1avj6cLKQ7NKpXe60-1" vertex="1">
          <mxGeometry y="60" width="160" height="26" as="geometry" />
        </mxCell>
        <mxCell id="wAcTSTtTQzhIJrVwbLEP-10" value="&amp;lt;&amp;lt;enumeration&amp;gt;&amp;gt;&lt;br&gt;&lt;b&gt;CustomerType&lt;/b&gt;" style="swimlane;fontStyle=0;align=center;verticalAlign=top;childLayout=stackLayout;horizontal=1;startSize=40;horizontalStack=0;resizeParent=1;resizeParentMax=0;resizeLast=0;collapsible=0;marginBottom=0;html=1;whiteSpace=wrap;" parent="1" vertex="1">
          <mxGeometry x="-450" y="370" width="140" height="96" as="geometry" />
        </mxCell>
        <mxCell id="wAcTSTtTQzhIJrVwbLEP-11" value="Indiviual" style="text;html=1;strokeColor=none;fillColor=none;align=left;verticalAlign=middle;spacingLeft=4;spacingRight=4;overflow=hidden;rotatable=0;points=[[0,0.5],[1,0.5]];portConstraint=eastwest;whiteSpace=wrap;" parent="wAcTSTtTQzhIJrVwbLEP-10" vertex="1">
          <mxGeometry y="40" width="140" height="30" as="geometry" />
        </mxCell>
        <mxCell id="wAcTSTtTQzhIJrVwbLEP-12" value="Company" style="text;strokeColor=none;fillColor=none;align=left;verticalAlign=top;spacingLeft=4;spacingRight=4;overflow=hidden;rotatable=0;points=[[0,0.5],[1,0.5]];portConstraint=eastwest;whiteSpace=wrap;html=1;" parent="wAcTSTtTQzhIJrVwbLEP-10" vertex="1">
          <mxGeometry y="70" width="140" height="26" as="geometry" />
        </mxCell>
        <mxCell id="wAcTSTtTQzhIJrVwbLEP-17" value="BaseEntity&lt;br&gt;{abstract}" style="swimlane;fontStyle=1;align=center;verticalAlign=top;childLayout=stackLayout;horizontal=1;startSize=40;horizontalStack=0;resizeParent=1;resizeParentMax=0;resizeLast=0;collapsible=1;marginBottom=0;whiteSpace=wrap;html=1;" parent="1" vertex="1">
          <mxGeometry x="-450" y="507" width="160" height="48" as="geometry" />
        </mxCell>
        <mxCell id="wAcTSTtTQzhIJrVwbLEP-19" value="" style="line;strokeWidth=1;fillColor=none;align=left;verticalAlign=middle;spacingTop=-1;spacingLeft=3;spacingRight=3;rotatable=0;labelPosition=right;points=[];portConstraint=eastwest;strokeColor=inherit;" parent="wAcTSTtTQzhIJrVwbLEP-17" vertex="1">
          <mxGeometry y="40" width="160" height="8" as="geometry" />
        </mxCell>
        <mxCell id="eQKK8pRcJmVTErWF50KW-1" value="CustomerDto" style="swimlane;fontStyle=1;align=center;verticalAlign=top;childLayout=stackLayout;horizontal=1;startSize=26;horizontalStack=0;resizeParent=1;resizeParentMax=0;resizeLast=0;collapsible=1;marginBottom=0;whiteSpace=wrap;html=1;" parent="1" vertex="1">
          <mxGeometry x="-880" y="500" width="160" height="112" as="geometry" />
        </mxCell>
        <mxCell id="eQKK8pRcJmVTErWF50KW-2" value="+ email" style="text;strokeColor=none;fillColor=none;align=left;verticalAlign=top;spacingLeft=4;spacingRight=4;overflow=hidden;rotatable=0;points=[[0,0.5],[1,0.5]];portConstraint=eastwest;whiteSpace=wrap;html=1;" parent="eQKK8pRcJmVTErWF50KW-1" vertex="1">
          <mxGeometry y="26" width="160" height="26" as="geometry" />
        </mxCell>
        <mxCell id="eQKK8pRcJmVTErWF50KW-5" value="+ status" style="text;strokeColor=none;fillColor=none;align=left;verticalAlign=top;spacingLeft=4;spacingRight=4;overflow=hidden;rotatable=0;points=[[0,0.5],[1,0.5]];portConstraint=eastwest;whiteSpace=wrap;html=1;" parent="eQKK8pRcJmVTErWF50KW-1" vertex="1">
          <mxGeometry y="52" width="160" height="26" as="geometry" />
        </mxCell>
        <mxCell id="eQKK8pRcJmVTErWF50KW-3" value="" style="line;strokeWidth=1;fillColor=none;align=left;verticalAlign=middle;spacingTop=-1;spacingLeft=3;spacingRight=3;rotatable=0;labelPosition=right;points=[];portConstraint=eastwest;strokeColor=inherit;" parent="eQKK8pRcJmVTErWF50KW-1" vertex="1">
          <mxGeometry y="78" width="160" height="8" as="geometry" />
        </mxCell>
        <mxCell id="eQKK8pRcJmVTErWF50KW-4" value="+&amp;nbsp;WriteTo&lt;span style=&quot;background-color: initial;&quot;&gt;(Customer): void&lt;/span&gt;" style="text;strokeColor=none;fillColor=none;align=left;verticalAlign=top;spacingLeft=4;spacingRight=4;overflow=hidden;rotatable=0;points=[[0,0.5],[1,0.5]];portConstraint=eastwest;whiteSpace=wrap;html=1;" parent="eQKK8pRcJmVTErWF50KW-1" vertex="1">
          <mxGeometry y="86" width="160" height="26" as="geometry" />
        </mxCell>
        <mxCell id="eQKK8pRcJmVTErWF50KW-9" value="BaseDto&lt;br&gt;{abstract}" style="swimlane;fontStyle=1;align=center;verticalAlign=top;childLayout=stackLayout;horizontal=1;startSize=40;horizontalStack=0;resizeParent=1;resizeParentMax=0;resizeLast=0;collapsible=1;marginBottom=0;whiteSpace=wrap;html=1;" parent="1" vertex="1">
          <mxGeometry x="-827" y="400" width="160" height="48" as="geometry" />
        </mxCell>
        <mxCell id="eQKK8pRcJmVTErWF50KW-10" value="" style="line;strokeWidth=1;fillColor=none;align=left;verticalAlign=middle;spacingTop=-1;spacingLeft=3;spacingRight=3;rotatable=0;labelPosition=right;points=[];portConstraint=eastwest;strokeColor=inherit;" parent="eQKK8pRcJmVTErWF50KW-9" vertex="1">
          <mxGeometry y="40" width="160" height="8" as="geometry" />
        </mxCell>
        <mxCell id="eQKK8pRcJmVTErWF50KW-11" value="Extends" style="endArrow=block;endSize=16;endFill=0;html=1;rounded=0;entryX=0.5;entryY=1;entryDx=0;entryDy=0;exitX=0.5;exitY=0;exitDx=0;exitDy=0;edgeStyle=orthogonalEdgeStyle;" parent="1" source="eQKK8pRcJmVTErWF50KW-1" target="eQKK8pRcJmVTErWF50KW-9" edge="1">
          <mxGeometry width="160" relative="1" as="geometry">
            <mxPoint x="-880" y="670" as="sourcePoint" />
            <mxPoint x="-720" y="670" as="targetPoint" />
          </mxGeometry>
        </mxCell>
        <mxCell id="eQKK8pRcJmVTErWF50KW-13" value="«interface»&lt;br&gt;&lt;b&gt;ICustomerService&lt;/b&gt;" style="html=1;whiteSpace=wrap;" parent="1" vertex="1">
          <mxGeometry x="-1360" y="320" width="110" height="50" as="geometry" />
        </mxCell>
        <mxCell id="eQKK8pRcJmVTErWF50KW-15" value="CustomerEditReq" style="swimlane;fontStyle=1;align=center;verticalAlign=top;childLayout=stackLayout;horizontal=1;startSize=26;horizontalStack=0;resizeParent=1;resizeParentMax=0;resizeLast=0;collapsible=1;marginBottom=0;whiteSpace=wrap;html=1;" parent="1" vertex="1">
          <mxGeometry x="-1280" y="475" width="160" height="112" as="geometry" />
        </mxCell>
        <mxCell id="eQKK8pRcJmVTErWF50KW-16" value="+ email" style="text;strokeColor=none;fillColor=none;align=left;verticalAlign=top;spacingLeft=4;spacingRight=4;overflow=hidden;rotatable=0;points=[[0,0.5],[1,0.5]];portConstraint=eastwest;whiteSpace=wrap;html=1;" parent="eQKK8pRcJmVTErWF50KW-15" vertex="1">
          <mxGeometry y="26" width="160" height="26" as="geometry" />
        </mxCell>
        <mxCell id="eQKK8pRcJmVTErWF50KW-19" value="+ status" style="text;strokeColor=none;fillColor=none;align=left;verticalAlign=top;spacingLeft=4;spacingRight=4;overflow=hidden;rotatable=0;points=[[0,0.5],[1,0.5]];portConstraint=eastwest;whiteSpace=wrap;html=1;" parent="eQKK8pRcJmVTErWF50KW-15" vertex="1">
          <mxGeometry y="52" width="160" height="26" as="geometry" />
        </mxCell>
        <mxCell id="eQKK8pRcJmVTErWF50KW-17" value="" style="line;strokeWidth=1;fillColor=none;align=left;verticalAlign=middle;spacingTop=-1;spacingLeft=3;spacingRight=3;rotatable=0;labelPosition=right;points=[];portConstraint=eastwest;strokeColor=inherit;" parent="eQKK8pRcJmVTErWF50KW-15" vertex="1">
          <mxGeometry y="78" width="160" height="8" as="geometry" />
        </mxCell>
        <mxCell id="eQKK8pRcJmVTErWF50KW-18" value="+ WriteTo(Customer): void" style="text;strokeColor=none;fillColor=none;align=left;verticalAlign=top;spacingLeft=4;spacingRight=4;overflow=hidden;rotatable=0;points=[[0,0.5],[1,0.5]];portConstraint=eastwest;whiteSpace=wrap;html=1;" parent="eQKK8pRcJmVTErWF50KW-15" vertex="1">
          <mxGeometry y="86" width="160" height="26" as="geometry" />
        </mxCell>
        <mxCell id="eQKK8pRcJmVTErWF50KW-20" value="SingleCustomerRes" style="swimlane;fontStyle=1;align=center;verticalAlign=top;childLayout=stackLayout;horizontal=1;startSize=26;horizontalStack=0;resizeParent=1;resizeParentMax=0;resizeLast=0;collapsible=1;marginBottom=0;whiteSpace=wrap;html=1;" parent="1" vertex="1">
          <mxGeometry x="-1160" y="400" width="160" height="60" as="geometry" />
        </mxCell>
        <mxCell id="eQKK8pRcJmVTErWF50KW-21" value="+ Data : CustomerDto" style="text;strokeColor=none;fillColor=none;align=left;verticalAlign=top;spacingLeft=4;spacingRight=4;overflow=hidden;rotatable=0;points=[[0,0.5],[1,0.5]];portConstraint=eastwest;whiteSpace=wrap;html=1;" parent="eQKK8pRcJmVTErWF50KW-20" vertex="1">
          <mxGeometry y="26" width="160" height="26" as="geometry" />
        </mxCell>
        <mxCell id="eQKK8pRcJmVTErWF50KW-22" value="" style="line;strokeWidth=1;fillColor=none;align=left;verticalAlign=middle;spacingTop=-1;spacingLeft=3;spacingRight=3;rotatable=0;labelPosition=right;points=[];portConstraint=eastwest;strokeColor=inherit;" parent="eQKK8pRcJmVTErWF50KW-20" vertex="1">
          <mxGeometry y="52" width="160" height="8" as="geometry" />
        </mxCell>
        <mxCell id="eQKK8pRcJmVTErWF50KW-24" value="MultipleCustomersRes" style="swimlane;fontStyle=1;align=center;verticalAlign=top;childLayout=stackLayout;horizontal=1;startSize=26;horizontalStack=0;resizeParent=1;resizeParentMax=0;resizeLast=0;collapsible=1;marginBottom=0;whiteSpace=wrap;html=1;" parent="1" vertex="1">
          <mxGeometry x="-990" y="302" width="180" height="86" as="geometry" />
        </mxCell>
        <mxCell id="eQKK8pRcJmVTErWF50KW-25" value="+ Data : IList&amp;lt;CustomerDto&amp;gt;" style="text;strokeColor=none;fillColor=none;align=left;verticalAlign=top;spacingLeft=4;spacingRight=4;overflow=hidden;rotatable=0;points=[[0,0.5],[1,0.5]];portConstraint=eastwest;whiteSpace=wrap;html=1;" parent="eQKK8pRcJmVTErWF50KW-24" vertex="1">
          <mxGeometry y="26" width="180" height="26" as="geometry" />
        </mxCell>
        <mxCell id="eQKK8pRcJmVTErWF50KW-26" value="" style="line;strokeWidth=1;fillColor=none;align=left;verticalAlign=middle;spacingTop=-1;spacingLeft=3;spacingRight=3;rotatable=0;labelPosition=right;points=[];portConstraint=eastwest;strokeColor=inherit;" parent="eQKK8pRcJmVTErWF50KW-24" vertex="1">
          <mxGeometry y="52" width="180" height="8" as="geometry" />
        </mxCell>
        <mxCell id="eQKK8pRcJmVTErWF50KW-27" value="+ method(type): type" style="text;strokeColor=none;fillColor=none;align=left;verticalAlign=top;spacingLeft=4;spacingRight=4;overflow=hidden;rotatable=0;points=[[0,0.5],[1,0.5]];portConstraint=eastwest;whiteSpace=wrap;html=1;" parent="eQKK8pRcJmVTErWF50KW-24" vertex="1">
          <mxGeometry y="60" width="180" height="26" as="geometry" />
        </mxCell>
        <mxCell id="eQKK8pRcJmVTErWF50KW-28" value="Use" style="endArrow=open;endSize=12;dashed=1;html=1;rounded=0;edgeStyle=elbowEdgeStyle;exitX=0.356;exitY=0.973;exitDx=0;exitDy=0;exitPerimeter=0;" parent="1" source="eQKK8pRcJmVTErWF50KW-18" target="eQKK8pRcJmVTErWF50KW-1" edge="1">
          <mxGeometry width="160" relative="1" as="geometry">
            <mxPoint x="-620" y="650" as="sourcePoint" />
            <mxPoint x="-460" y="650" as="targetPoint" />
            <Array as="points">
              <mxPoint x="-1150" y="640" />
            </Array>
          </mxGeometry>
        </mxCell>
        <mxCell id="eQKK8pRcJmVTErWF50KW-37" value="BillingDetails" style="endArrow=block;endFill=1;html=1;edgeStyle=orthogonalEdgeStyle;align=right;verticalAlign=top;rounded=0;entryX=0.75;entryY=0;entryDx=0;entryDy=0;exitX=-0.006;exitY=0.774;exitDx=0;exitDy=0;exitPerimeter=0;" parent="1" source="vJObKhTMlozAfTAqeUGI-2" target="16kLuzmeFWq6vYBoowsL-6" edge="1">
          <mxGeometry x="-1" relative="1" as="geometry">
            <mxPoint y="546" as="sourcePoint" />
            <mxPoint x="-20" y="496" as="targetPoint" />
            <mxPoint as="offset" />
          </mxGeometry>
        </mxCell>
        <mxCell id="eQKK8pRcJmVTErWF50KW-38" value="1" style="edgeLabel;resizable=0;html=1;align=right;verticalAlign=bottom;" parent="eQKK8pRcJmVTErWF50KW-37" connectable="0" vertex="1">
          <mxGeometry x="-1" relative="1" as="geometry" />
        </mxCell>
        <mxCell id="eQKK8pRcJmVTErWF50KW-39" value="ShippingDetails" style="endArrow=block;endFill=1;html=1;edgeStyle=orthogonalEdgeStyle;align=right;verticalAlign=top;rounded=0;exitX=-0.018;exitY=1.094;exitDx=0;exitDy=0;exitPerimeter=0;" parent="1" source="fR-1liaUMTlWW7amwrhS-14" target="16kLuzmeFWq6vYBoowsL-6" edge="1">
          <mxGeometry x="-1" relative="1" as="geometry">
            <mxPoint x="-80" y="586" as="sourcePoint" />
            <mxPoint x="80" y="586" as="targetPoint" />
          </mxGeometry>
        </mxCell>
        <mxCell id="eQKK8pRcJmVTErWF50KW-40" value="1" style="edgeLabel;resizable=0;html=1;align=right;verticalAlign=bottom;" parent="eQKK8pRcJmVTErWF50KW-39" connectable="0" vertex="1">
          <mxGeometry x="-1" relative="1" as="geometry" />
        </mxCell>
        <mxCell id="eQKK8pRcJmVTErWF50KW-43" value="Data" style="endArrow=block;endFill=1;html=1;edgeStyle=orthogonalEdgeStyle;align=right;verticalAlign=top;rounded=0;exitX=0;exitY=0.25;exitDx=0;exitDy=0;" parent="1" source="eQKK8pRcJmVTErWF50KW-1" target="eQKK8pRcJmVTErWF50KW-24" edge="1">
          <mxGeometry x="-1" relative="1" as="geometry">
            <mxPoint x="-780" y="610" as="sourcePoint" />
            <mxPoint x="-620" y="610" as="targetPoint" />
          </mxGeometry>
        </mxCell>
        <mxCell id="eQKK8pRcJmVTErWF50KW-44" value="*" style="edgeLabel;resizable=0;html=1;align=right;verticalAlign=bottom;" parent="eQKK8pRcJmVTErWF50KW-43" connectable="0" vertex="1">
          <mxGeometry x="-1" relative="1" as="geometry" />
        </mxCell>
        <mxCell id="eQKK8pRcJmVTErWF50KW-47" value="Use" style="endArrow=open;endSize=12;dashed=1;html=1;rounded=0;edgeStyle=orthogonalEdgeStyle;" parent="1" source="eQKK8pRcJmVTErWF50KW-13" target="eQKK8pRcJmVTErWF50KW-24" edge="1">
          <mxGeometry width="160" relative="1" as="geometry">
            <mxPoint x="-1080" y="510" as="sourcePoint" />
            <mxPoint x="-920" y="510" as="targetPoint" />
            <Array as="points">
              <mxPoint x="-1050" y="345" />
            </Array>
          </mxGeometry>
        </mxCell>
        <mxCell id="eQKK8pRcJmVTErWF50KW-48" value="Use" style="endArrow=open;endSize=12;dashed=1;html=1;rounded=0;entryX=0.75;entryY=0;entryDx=0;entryDy=0;edgeStyle=orthogonalEdgeStyle;" parent="1" source="eQKK8pRcJmVTErWF50KW-13" target="eQKK8pRcJmVTErWF50KW-20" edge="1">
          <mxGeometry width="160" relative="1" as="geometry">
            <mxPoint x="-1020" y="520" as="sourcePoint" />
            <mxPoint x="-860" y="520" as="targetPoint" />
          </mxGeometry>
        </mxCell>
        <mxCell id="eQKK8pRcJmVTErWF50KW-49" value="Use" style="endArrow=open;endSize=12;dashed=1;html=1;rounded=0;edgeStyle=orthogonalEdgeStyle;" parent="1" source="eQKK8pRcJmVTErWF50KW-13" target="eQKK8pRcJmVTErWF50KW-15" edge="1">
          <mxGeometry width="160" relative="1" as="geometry">
            <mxPoint x="-1120" y="590" as="sourcePoint" />
            <mxPoint x="-960" y="590" as="targetPoint" />
          </mxGeometry>
        </mxCell>
        <mxCell id="eQKK8pRcJmVTErWF50KW-52" value="Use" style="endArrow=open;endSize=12;dashed=1;html=1;rounded=0;edgeStyle=orthogonalEdgeStyle;exitX=1;exitY=0.25;exitDx=0;exitDy=0;" parent="1" source="eQKK8pRcJmVTErWF50KW-1" target="16kLuzmeFWq6vYBoowsL-6" edge="1">
          <mxGeometry width="160" relative="1" as="geometry">
            <mxPoint x="-220" y="480" as="sourcePoint" />
            <mxPoint x="-60" y="480" as="targetPoint" />
            <Array as="points">
              <mxPoint x="-580" y="528" />
              <mxPoint x="-580" y="743" />
            </Array>
          </mxGeometry>
        </mxCell>
        <mxCell id="eQKK8pRcJmVTErWF50KW-53" value="CustomerCreateReq" style="swimlane;fontStyle=1;align=center;verticalAlign=top;childLayout=stackLayout;horizontal=1;startSize=26;horizontalStack=0;resizeParent=1;resizeParentMax=0;resizeLast=0;collapsible=1;marginBottom=0;whiteSpace=wrap;html=1;" parent="1" vertex="1">
          <mxGeometry x="-1385" y="663" width="160" height="60" as="geometry" />
        </mxCell>
        <mxCell id="eQKK8pRcJmVTErWF50KW-54" value="+email" style="text;strokeColor=none;fillColor=none;align=left;verticalAlign=top;spacingLeft=4;spacingRight=4;overflow=hidden;rotatable=0;points=[[0,0.5],[1,0.5]];portConstraint=eastwest;whiteSpace=wrap;html=1;" parent="eQKK8pRcJmVTErWF50KW-53" vertex="1">
          <mxGeometry y="26" width="160" height="26" as="geometry" />
        </mxCell>
        <mxCell id="eQKK8pRcJmVTErWF50KW-55" value="" style="line;strokeWidth=1;fillColor=none;align=left;verticalAlign=middle;spacingTop=-1;spacingLeft=3;spacingRight=3;rotatable=0;labelPosition=right;points=[];portConstraint=eastwest;strokeColor=inherit;" parent="eQKK8pRcJmVTErWF50KW-53" vertex="1">
          <mxGeometry y="52" width="160" height="8" as="geometry" />
        </mxCell>
        <mxCell id="eQKK8pRcJmVTErWF50KW-57" value="Use" style="endArrow=open;endSize=12;dashed=1;html=1;rounded=0;edgeStyle=orthogonalEdgeStyle;" parent="1" source="eQKK8pRcJmVTErWF50KW-13" target="eQKK8pRcJmVTErWF50KW-53" edge="1">
          <mxGeometry width="160" relative="1" as="geometry">
            <mxPoint x="-1290" y="560" as="sourcePoint" />
            <mxPoint x="-1130" y="560" as="targetPoint" />
          </mxGeometry>
        </mxCell>
        <mxCell id="eQKK8pRcJmVTErWF50KW-60" value="Extends" style="endArrow=block;endSize=16;endFill=0;html=1;rounded=0;edgeStyle=orthogonalEdgeStyle;exitX=0.25;exitY=0;exitDx=0;exitDy=0;" parent="1" source="16kLuzmeFWq6vYBoowsL-6" target="wAcTSTtTQzhIJrVwbLEP-17" edge="1">
          <mxGeometry width="160" relative="1" as="geometry">
            <mxPoint x="120" y="870" as="sourcePoint" />
            <mxPoint x="280" y="870" as="targetPoint" />
          </mxGeometry>
        </mxCell>
        <mxCell id="eQKK8pRcJmVTErWF50KW-61" value="«interface»&lt;br&gt;&lt;b&gt;IBaseRepositoryAsync&lt;/b&gt;" style="html=1;whiteSpace=wrap;" parent="1" vertex="1">
          <mxGeometry x="-60" y="638" width="160" height="50" as="geometry" />
        </mxCell>
        <mxCell id="eQKK8pRcJmVTErWF50KW-62" value="Use" style="endArrow=open;endSize=12;dashed=1;html=1;rounded=0;edgeStyle=orthogonalEdgeStyle;exitX=0;exitY=0.5;exitDx=0;exitDy=0;entryX=0.999;entryY=0.109;entryDx=0;entryDy=0;entryPerimeter=0;" parent="1" source="eQKK8pRcJmVTErWF50KW-61" target="16kLuzmeFWq6vYBoowsL-6" edge="1">
          <mxGeometry x="0.0074" width="160" relative="1" as="geometry">
            <mxPoint x="380" y="790" as="sourcePoint" />
            <mxPoint x="540" y="790" as="targetPoint" />
            <mxPoint as="offset" />
          </mxGeometry>
        </mxCell>
        <mxCell id="eQKK8pRcJmVTErWF50KW-63" value="«interface»&lt;br&gt;&lt;b&gt;IUnitOfWork&lt;/b&gt;" style="html=1;whiteSpace=wrap;" parent="1" vertex="1">
          <mxGeometry x="-35" y="542" width="110" height="50" as="geometry" />
        </mxCell>
        <mxCell id="eQKK8pRcJmVTErWF50KW-64" value="Use" style="endArrow=open;endSize=12;dashed=1;html=1;rounded=0;edgeStyle=orthogonalEdgeStyle;entryX=0.5;entryY=0;entryDx=0;entryDy=0;exitX=0.5;exitY=1;exitDx=0;exitDy=0;" parent="1" source="eQKK8pRcJmVTErWF50KW-63" target="eQKK8pRcJmVTErWF50KW-61" edge="1">
          <mxGeometry width="160" relative="1" as="geometry">
            <mxPoint x="450" y="770" as="sourcePoint" />
            <mxPoint x="610" y="770" as="targetPoint" />
          </mxGeometry>
        </mxCell>
        <mxCell id="eQKK8pRcJmVTErWF50KW-65" value="Data" style="endArrow=block;endFill=1;html=1;edgeStyle=orthogonalEdgeStyle;align=right;verticalAlign=top;rounded=0;exitX=0;exitY=0.5;exitDx=0;exitDy=0;" parent="1" source="eQKK8pRcJmVTErWF50KW-4" target="eQKK8pRcJmVTErWF50KW-20" edge="1">
          <mxGeometry x="-1" relative="1" as="geometry">
            <mxPoint x="-1070" y="810" as="sourcePoint" />
            <mxPoint x="-910" y="810" as="targetPoint" />
          </mxGeometry>
        </mxCell>
        <mxCell id="eQKK8pRcJmVTErWF50KW-66" value="1" style="edgeLabel;resizable=0;html=1;align=right;verticalAlign=bottom;" parent="eQKK8pRcJmVTErWF50KW-65" connectable="0" vertex="1">
          <mxGeometry x="-1" relative="1" as="geometry" />
        </mxCell>
      </root>
    </mxGraphModel>
  </diagram>
  <diagram id="lNtfQAyREhXmGD34lZc3" name="Use Case">
    <mxGraphModel dx="2068" dy="995" grid="1" gridSize="10" guides="1" tooltips="1" connect="1" arrows="1" fold="1" page="1" pageScale="1" pageWidth="827" pageHeight="1169" math="0" shadow="0">
      <root>
        <mxCell id="0" />
        <mxCell id="1" parent="0" />
        <mxCell id="MgL5AnNDBONdqnhEMKH3-1" value="Customer service" style="shape=umlActor;verticalLabelPosition=bottom;verticalAlign=top;html=1;" parent="1" vertex="1">
          <mxGeometry x="-140" y="380" width="30" height="60" as="geometry" />
        </mxCell>
        <mxCell id="mMcV5O-NKkE0r6yix_zK-1" value="Voir le profil d&#39;un Client" style="ellipse;whiteSpace=wrap;html=1;fillColor=#fff2cc;strokeColor=#d6b656;" parent="1" vertex="1">
          <mxGeometry x="280" y="310" width="140" height="70" as="geometry" />
        </mxCell>
        <mxCell id="mMcV5O-NKkE0r6yix_zK-2" value="Editer le profil d&#39;un Client" style="ellipse;whiteSpace=wrap;html=1;fillColor=#d5e8d4;strokeColor=#82b366;" parent="1" vertex="1">
          <mxGeometry x="280" y="470" width="140" height="70" as="geometry" />
        </mxCell>
        <mxCell id="mMcV5O-NKkE0r6yix_zK-3" value="" style="endArrow=none;html=1;rounded=0;exitX=0.467;exitY=0.617;exitDx=0;exitDy=0;exitPerimeter=0;" parent="1" source="MgL5AnNDBONdqnhEMKH3-1" target="mMcV5O-NKkE0r6yix_zK-2" edge="1">
          <mxGeometry width="50" height="50" relative="1" as="geometry">
            <mxPoint x="160" y="650" as="sourcePoint" />
            <mxPoint x="210" y="600" as="targetPoint" />
          </mxGeometry>
        </mxCell>
        <mxCell id="mMcV5O-NKkE0r6yix_zK-4" value="&amp;lt;&amp;lt;include&amp;gt;&amp;gt;" style="html=1;verticalAlign=bottom;labelBackgroundColor=none;endArrow=open;endFill=0;dashed=1;rounded=0;" parent="1" source="mMcV5O-NKkE0r6yix_zK-2" target="mMcV5O-NKkE0r6yix_zK-1" edge="1">
          <mxGeometry width="160" relative="1" as="geometry">
            <mxPoint x="280" y="660" as="sourcePoint" />
            <mxPoint x="440" y="660" as="targetPoint" />
          </mxGeometry>
        </mxCell>
        <mxCell id="mMcV5O-NKkE0r6yix_zK-5" value="Edition de la Facturation" style="ellipse;whiteSpace=wrap;html=1;fillColor=#d5e8d4;strokeColor=#82b366;" parent="1" vertex="1">
          <mxGeometry x="450" y="630" width="140" height="70" as="geometry" />
        </mxCell>
        <mxCell id="mMcV5O-NKkE0r6yix_zK-6" value="Connexion a la plateforme" style="ellipse;whiteSpace=wrap;html=1;fillColor=#fff2cc;strokeColor=#d6b656;" parent="1" vertex="1">
          <mxGeometry x="280" y="150" width="140" height="70" as="geometry" />
        </mxCell>
        <mxCell id="mMcV5O-NKkE0r6yix_zK-7" value="" style="endArrow=none;html=1;rounded=0;exitX=0.5;exitY=0.5;exitDx=0;exitDy=0;exitPerimeter=0;" parent="1" source="MgL5AnNDBONdqnhEMKH3-1" target="mMcV5O-NKkE0r6yix_zK-6" edge="1">
          <mxGeometry width="50" height="50" relative="1" as="geometry">
            <mxPoint x="120" y="330" as="sourcePoint" />
            <mxPoint x="170" y="280" as="targetPoint" />
          </mxGeometry>
        </mxCell>
        <mxCell id="mMcV5O-NKkE0r6yix_zK-9" value="Extends" style="endArrow=block;endSize=16;endFill=0;html=1;rounded=0;" parent="1" source="mMcV5O-NKkE0r6yix_zK-5" target="mMcV5O-NKkE0r6yix_zK-2" edge="1">
          <mxGeometry width="160" relative="1" as="geometry">
            <mxPoint x="360" y="780" as="sourcePoint" />
            <mxPoint x="520" y="780" as="targetPoint" />
          </mxGeometry>
        </mxCell>
        <mxCell id="mMcV5O-NKkE0r6yix_zK-10" value="" style="endArrow=none;html=1;rounded=0;exitX=0.467;exitY=0.233;exitDx=0;exitDy=0;exitPerimeter=0;" parent="1" source="MgL5AnNDBONdqnhEMKH3-1" target="mMcV5O-NKkE0r6yix_zK-1" edge="1">
          <mxGeometry width="50" height="50" relative="1" as="geometry">
            <mxPoint x="100" y="440" as="sourcePoint" />
            <mxPoint x="180" y="590" as="targetPoint" />
          </mxGeometry>
        </mxCell>
        <mxCell id="mMcV5O-NKkE0r6yix_zK-11" value="Modifier Date de prélèvement" style="ellipse;whiteSpace=wrap;html=1;fillColor=#d5e8d4;strokeColor=#82b366;" parent="1" vertex="1">
          <mxGeometry x="280" y="790" width="140" height="70" as="geometry" />
        </mxCell>
        <mxCell id="mMcV5O-NKkE0r6yix_zK-12" value="Extends" style="endArrow=block;endSize=16;endFill=0;html=1;rounded=0;" parent="1" source="mMcV5O-NKkE0r6yix_zK-11" target="w1DSK9wc1Bd_86e-E3_P-1" edge="1">
          <mxGeometry width="160" relative="1" as="geometry">
            <mxPoint x="560" y="810" as="sourcePoint" />
            <mxPoint x="720" y="810" as="targetPoint" />
          </mxGeometry>
        </mxCell>
        <mxCell id="w1DSK9wc1Bd_86e-E3_P-1" value="Edition de la Souscription" style="ellipse;whiteSpace=wrap;html=1;fillColor=#d5e8d4;strokeColor=#82b366;" parent="1" vertex="1">
          <mxGeometry x="110" y="630" width="140" height="70" as="geometry" />
        </mxCell>
        <mxCell id="w1DSK9wc1Bd_86e-E3_P-2" value="Extends" style="endArrow=block;endSize=16;endFill=0;html=1;rounded=0;" parent="1" source="w1DSK9wc1Bd_86e-E3_P-1" target="mMcV5O-NKkE0r6yix_zK-2" edge="1">
          <mxGeometry width="160" relative="1" as="geometry">
            <mxPoint x="140" y="820" as="sourcePoint" />
            <mxPoint x="300" y="820" as="targetPoint" />
          </mxGeometry>
        </mxCell>
        <mxCell id="w1DSK9wc1Bd_86e-E3_P-3" value="Changer l&#39;Offre" style="ellipse;whiteSpace=wrap;html=1;fillColor=#d5e8d4;strokeColor=#82b366;" parent="1" vertex="1">
          <mxGeometry x="110" y="790" width="140" height="70" as="geometry" />
        </mxCell>
        <mxCell id="w1DSK9wc1Bd_86e-E3_P-4" value="Extends" style="endArrow=block;endSize=16;endFill=0;html=1;rounded=0;" parent="1" source="w1DSK9wc1Bd_86e-E3_P-3" target="w1DSK9wc1Bd_86e-E3_P-1" edge="1">
          <mxGeometry width="160" relative="1" as="geometry">
            <mxPoint x="250" y="910" as="sourcePoint" />
            <mxPoint x="410" y="910" as="targetPoint" />
          </mxGeometry>
        </mxCell>
        <mxCell id="w1DSK9wc1Bd_86e-E3_P-5" value="Resilier l&#39;Offre" style="ellipse;whiteSpace=wrap;html=1;fillColor=#d5e8d4;strokeColor=#82b366;" parent="1" vertex="1">
          <mxGeometry x="-60" y="790" width="140" height="70" as="geometry" />
        </mxCell>
        <mxCell id="w1DSK9wc1Bd_86e-E3_P-6" value="Extends" style="endArrow=block;endSize=16;endFill=0;html=1;rounded=0;" parent="1" source="w1DSK9wc1Bd_86e-E3_P-5" target="w1DSK9wc1Bd_86e-E3_P-1" edge="1">
          <mxGeometry width="160" relative="1" as="geometry">
            <mxPoint x="330" y="870" as="sourcePoint" />
            <mxPoint x="490" y="870" as="targetPoint" />
          </mxGeometry>
        </mxCell>
        <mxCell id="PxeNHM49aA0s6RQ2RjFO-1" value="Appliquer Remise" style="ellipse;whiteSpace=wrap;html=1;fillColor=#d5e8d4;strokeColor=#82b366;" parent="1" vertex="1">
          <mxGeometry x="450" y="790" width="140" height="70" as="geometry" />
        </mxCell>
        <mxCell id="PxeNHM49aA0s6RQ2RjFO-2" value="Extends" style="endArrow=block;endSize=16;endFill=0;html=1;rounded=0;" parent="1" source="PxeNHM49aA0s6RQ2RjFO-1" target="mMcV5O-NKkE0r6yix_zK-5" edge="1">
          <mxGeometry width="160" relative="1" as="geometry">
            <mxPoint x="520" y="930" as="sourcePoint" />
            <mxPoint x="680" y="930" as="targetPoint" />
          </mxGeometry>
        </mxCell>
        <mxCell id="XJ-ktfhGSoUfJe1v08_F-1" value="Changer la méthode de paiement" style="ellipse;whiteSpace=wrap;html=1;fillColor=#d5e8d4;strokeColor=#82b366;" parent="1" vertex="1">
          <mxGeometry x="620" y="790" width="140" height="70" as="geometry" />
        </mxCell>
        <mxCell id="XJ-ktfhGSoUfJe1v08_F-2" value="Extends" style="endArrow=block;endSize=16;endFill=0;html=1;rounded=0;" parent="1" source="XJ-ktfhGSoUfJe1v08_F-1" target="mMcV5O-NKkE0r6yix_zK-5" edge="1">
          <mxGeometry width="160" relative="1" as="geometry">
            <mxPoint x="350" y="920" as="sourcePoint" />
            <mxPoint x="510" y="920" as="targetPoint" />
          </mxGeometry>
        </mxCell>
        <mxCell id="AcDJjJGCgbhTR2nmmWOs-1" value="Périmètre fonctionnel" style="rounded=1;whiteSpace=wrap;html=1;fillColor=#d5e8d4;strokeColor=#82b366;sketch=1;curveFitting=1;jiggle=2;" parent="1" vertex="1">
          <mxGeometry x="-280" y="90" width="120" height="60" as="geometry" />
        </mxCell>
        <mxCell id="AcDJjJGCgbhTR2nmmWOs-2" value="Périphérie" style="rounded=1;whiteSpace=wrap;html=1;fillColor=#fff2cc;strokeColor=#d6b656;sketch=1;curveFitting=1;jiggle=2;" parent="1" vertex="1">
          <mxGeometry x="-280" y="170" width="120" height="60" as="geometry" />
        </mxCell>
      </root>
    </mxGraphModel>
  </diagram>
  <diagram id="0Y47yITF82SKB_afTv7o" name="Deployment">
    <mxGraphModel dx="1232" dy="1187" grid="1" gridSize="10" guides="1" tooltips="1" connect="1" arrows="1" fold="1" page="1" pageScale="1" pageWidth="827" pageHeight="1169" math="0" shadow="0">
      <root>
        <mxCell id="0" />
        <mxCell id="1" parent="0" />
        <mxCell id="UiGotJ_jFO2iMPFtPVNW-19" value="" style="rounded=1;whiteSpace=wrap;html=1;fillColor=default;dashed=1;strokeColor=#2875e2;" parent="1" vertex="1">
          <mxGeometry x="164" y="409" width="500" height="352" as="geometry" />
        </mxCell>
        <mxCell id="UiGotJ_jFO2iMPFtPVNW-1" value="svc&lt;br&gt;webapp" style="sketch=0;html=1;dashed=0;whitespace=wrap;fillColor=#2875E2;strokeColor=#ffffff;points=[[0.005,0.63,0],[0.1,0.2,0],[0.9,0.2,0],[0.5,0,0],[0.995,0.63,0],[0.72,0.99,0],[0.5,1,0],[0.28,0.99,0]];verticalLabelPosition=bottom;align=center;verticalAlign=top;shape=mxgraph.kubernetes.icon;prIcon=svc" parent="1" vertex="1">
          <mxGeometry x="574" y="661" width="50" height="48" as="geometry" />
        </mxCell>
        <mxCell id="UiGotJ_jFO2iMPFtPVNW-2" value="pod&lt;br&gt;webapp" style="sketch=0;html=1;dashed=0;whitespace=wrap;fillColor=#2875E2;strokeColor=#ffffff;points=[[0.005,0.63,0],[0.1,0.2,0],[0.9,0.2,0],[0.5,0,0],[0.995,0.63,0],[0.72,0.99,0],[0.5,1,0],[0.28,0.99,0]];verticalLabelPosition=bottom;align=center;verticalAlign=top;shape=mxgraph.kubernetes.icon;prIcon=pod" parent="1" vertex="1">
          <mxGeometry x="444" y="661" width="50" height="48" as="geometry" />
        </mxCell>
        <mxCell id="UiGotJ_jFO2iMPFtPVNW-3" value="rs&lt;br&gt;webapp" style="sketch=0;html=1;dashed=0;whitespace=wrap;fillColor=#2875E2;strokeColor=#ffffff;points=[[0.005,0.63,0],[0.1,0.2,0],[0.9,0.2,0],[0.5,0,0],[0.995,0.63,0],[0.72,0.99,0],[0.5,1,0],[0.28,0.99,0]];verticalLabelPosition=bottom;align=center;verticalAlign=top;shape=mxgraph.kubernetes.icon;prIcon=rs" parent="1" vertex="1">
          <mxGeometry x="314" y="661" width="50" height="48" as="geometry" />
        </mxCell>
        <mxCell id="UiGotJ_jFO2iMPFtPVNW-4" value="deploy&lt;br&gt;webapp" style="sketch=0;html=1;dashed=0;whitespace=wrap;fillColor=#2875E2;strokeColor=#ffffff;points=[[0.005,0.63,0],[0.1,0.2,0],[0.9,0.2,0],[0.5,0,0],[0.995,0.63,0],[0.72,0.99,0],[0.5,1,0],[0.28,0.99,0]];verticalLabelPosition=bottom;align=center;verticalAlign=top;shape=mxgraph.kubernetes.icon;prIcon=deploy" parent="1" vertex="1">
          <mxGeometry x="184" y="661" width="50" height="48" as="geometry" />
        </mxCell>
        <mxCell id="UiGotJ_jFO2iMPFtPVNW-6" value="sts&lt;br&gt;postgres-postgresql" style="sketch=0;html=1;dashed=0;whitespace=wrap;fillColor=#2875E2;strokeColor=#ffffff;points=[[0.005,0.63,0],[0.1,0.2,0],[0.9,0.2,0],[0.5,0,0],[0.995,0.63,0],[0.72,0.99,0],[0.5,1,0],[0.28,0.99,0]];verticalLabelPosition=bottom;align=center;verticalAlign=top;shape=mxgraph.kubernetes.icon;prIcon=sts" parent="1" vertex="1">
          <mxGeometry x="314" y="541" width="50" height="48" as="geometry" />
        </mxCell>
        <mxCell id="UiGotJ_jFO2iMPFtPVNW-7" value="pod&lt;br&gt;postgres-postgresql-0" style="sketch=0;html=1;dashed=0;whitespace=wrap;fillColor=#2875E2;strokeColor=#ffffff;points=[[0.005,0.63,0],[0.1,0.2,0],[0.9,0.2,0],[0.5,0,0],[0.995,0.63,0],[0.72,0.99,0],[0.5,1,0],[0.28,0.99,0]];verticalLabelPosition=bottom;align=center;verticalAlign=top;shape=mxgraph.kubernetes.icon;prIcon=pod" parent="1" vertex="1">
          <mxGeometry x="444" y="541" width="50" height="48" as="geometry" />
        </mxCell>
        <mxCell id="UiGotJ_jFO2iMPFtPVNW-8" value="pvc&lt;br&gt;data-postgres-postgresql-0" style="sketch=0;html=1;dashed=0;whitespace=wrap;fillColor=#2875E2;strokeColor=#ffffff;points=[[0.005,0.63,0],[0.1,0.2,0],[0.9,0.2,0],[0.5,0,0],[0.995,0.63,0],[0.72,0.99,0],[0.5,1,0],[0.28,0.99,0]];verticalLabelPosition=bottom;align=center;verticalAlign=top;shape=mxgraph.kubernetes.icon;prIcon=pvc" parent="1" vertex="1">
          <mxGeometry x="314" y="421" width="50" height="48" as="geometry" />
        </mxCell>
        <mxCell id="UiGotJ_jFO2iMPFtPVNW-9" value="svc&lt;br&gt;postgres-postgresql" style="sketch=0;html=1;dashed=0;whitespace=wrap;fillColor=#2875E2;strokeColor=#ffffff;points=[[0.005,0.63,0],[0.1,0.2,0],[0.9,0.2,0],[0.5,0,0],[0.995,0.63,0],[0.72,0.99,0],[0.5,1,0],[0.28,0.99,0]];verticalLabelPosition=bottom;align=center;verticalAlign=top;shape=mxgraph.kubernetes.icon;prIcon=svc" parent="1" vertex="1">
          <mxGeometry x="574" y="541" width="50" height="48" as="geometry" />
        </mxCell>
        <mxCell id="UiGotJ_jFO2iMPFtPVNW-10" value="svc&lt;br&gt;postgres-postgresql-hl" style="sketch=0;html=1;dashed=0;whitespace=wrap;fillColor=#2875E2;strokeColor=#ffffff;points=[[0.005,0.63,0],[0.1,0.2,0],[0.9,0.2,0],[0.5,0,0],[0.995,0.63,0],[0.72,0.99,0],[0.5,1,0],[0.28,0.99,0]];verticalLabelPosition=bottom;align=center;verticalAlign=top;shape=mxgraph.kubernetes.icon;prIcon=svc" parent="1" vertex="1">
          <mxGeometry x="574" y="421" width="50" height="48" as="geometry" />
        </mxCell>
        <mxCell id="UiGotJ_jFO2iMPFtPVNW-11" value="" style="endArrow=classic;html=1;rounded=0;dashed=1;dashPattern=8 8;exitX=0.995;exitY=0.63;exitDx=0;exitDy=0;exitPerimeter=0;entryX=0.005;entryY=0.63;entryDx=0;entryDy=0;entryPerimeter=0;" parent="1" source="UiGotJ_jFO2iMPFtPVNW-4" target="UiGotJ_jFO2iMPFtPVNW-3" edge="1">
          <mxGeometry width="50" height="50" relative="1" as="geometry">
            <mxPoint x="284" y="631" as="sourcePoint" />
            <mxPoint x="234" y="631" as="targetPoint" />
          </mxGeometry>
        </mxCell>
        <mxCell id="UiGotJ_jFO2iMPFtPVNW-12" value="" style="endArrow=classic;html=1;rounded=0;dashed=1;dashPattern=8 8;exitX=0.995;exitY=0.63;exitDx=0;exitDy=0;exitPerimeter=0;entryX=0.005;entryY=0.63;entryDx=0;entryDy=0;entryPerimeter=0;" parent="1" source="UiGotJ_jFO2iMPFtPVNW-3" target="UiGotJ_jFO2iMPFtPVNW-2" edge="1">
          <mxGeometry width="50" height="50" relative="1" as="geometry">
            <mxPoint x="244" y="701" as="sourcePoint" />
            <mxPoint x="324" y="701" as="targetPoint" />
          </mxGeometry>
        </mxCell>
        <mxCell id="UiGotJ_jFO2iMPFtPVNW-13" value="" style="endArrow=classic;html=1;rounded=0;entryX=0.995;entryY=0.63;entryDx=0;entryDy=0;entryPerimeter=0;exitX=0.005;exitY=0.63;exitDx=0;exitDy=0;exitPerimeter=0;" parent="1" source="UiGotJ_jFO2iMPFtPVNW-1" target="UiGotJ_jFO2iMPFtPVNW-2" edge="1">
          <mxGeometry width="50" height="50" relative="1" as="geometry">
            <mxPoint x="224" y="841" as="sourcePoint" />
            <mxPoint x="274" y="791" as="targetPoint" />
          </mxGeometry>
        </mxCell>
        <mxCell id="UiGotJ_jFO2iMPFtPVNW-14" value="" style="endArrow=classic;html=1;rounded=0;dashed=1;dashPattern=8 8;exitX=0.995;exitY=0.63;exitDx=0;exitDy=0;exitPerimeter=0;entryX=0.005;entryY=0.63;entryDx=0;entryDy=0;entryPerimeter=0;" parent="1" source="UiGotJ_jFO2iMPFtPVNW-6" target="UiGotJ_jFO2iMPFtPVNW-7" edge="1">
          <mxGeometry width="50" height="50" relative="1" as="geometry">
            <mxPoint x="244" y="701" as="sourcePoint" />
            <mxPoint x="324" y="701" as="targetPoint" />
          </mxGeometry>
        </mxCell>
        <mxCell id="UiGotJ_jFO2iMPFtPVNW-15" value="" style="endArrow=classic;html=1;rounded=0;entryX=0.995;entryY=0.63;entryDx=0;entryDy=0;entryPerimeter=0;exitX=0.005;exitY=0.63;exitDx=0;exitDy=0;exitPerimeter=0;" parent="1" source="UiGotJ_jFO2iMPFtPVNW-9" target="UiGotJ_jFO2iMPFtPVNW-7" edge="1">
          <mxGeometry width="50" height="50" relative="1" as="geometry">
            <mxPoint x="584" y="701" as="sourcePoint" />
            <mxPoint x="504" y="701" as="targetPoint" />
          </mxGeometry>
        </mxCell>
        <mxCell id="UiGotJ_jFO2iMPFtPVNW-16" value="" style="endArrow=classic;html=1;rounded=0;entryX=0.995;entryY=0.63;entryDx=0;entryDy=0;entryPerimeter=0;exitX=0.005;exitY=0.63;exitDx=0;exitDy=0;exitPerimeter=0;edgeStyle=orthogonalEdgeStyle;" parent="1" source="UiGotJ_jFO2iMPFtPVNW-10" target="UiGotJ_jFO2iMPFtPVNW-7" edge="1">
          <mxGeometry width="50" height="50" relative="1" as="geometry">
            <mxPoint x="584" y="701" as="sourcePoint" />
            <mxPoint x="504" y="701" as="targetPoint" />
          </mxGeometry>
        </mxCell>
        <mxCell id="UiGotJ_jFO2iMPFtPVNW-17" value="" style="endArrow=none;html=1;rounded=0;entryX=0.995;entryY=0.63;entryDx=0;entryDy=0;entryPerimeter=0;exitX=0.5;exitY=0;exitDx=0;exitDy=0;exitPerimeter=0;edgeStyle=orthogonalEdgeStyle;targetPerimeterSpacing=0;endSize=6;dashed=1;" parent="1" source="UiGotJ_jFO2iMPFtPVNW-7" target="UiGotJ_jFO2iMPFtPVNW-8" edge="1">
          <mxGeometry width="50" height="50" relative="1" as="geometry">
            <mxPoint x="384" y="891" as="sourcePoint" />
            <mxPoint x="434" y="841" as="targetPoint" />
          </mxGeometry>
        </mxCell>
        <mxCell id="UiGotJ_jFO2iMPFtPVNW-18" value="namespace&lt;br&gt;default" style="sketch=0;html=1;dashed=0;whitespace=wrap;fillColor=#2875E2;strokeColor=#ffffff;points=[[0.005,0.63,0],[0.1,0.2,0],[0.9,0.2,0],[0.5,0,0],[0.995,0.63,0],[0.72,0.99,0],[0.5,1,0],[0.28,0.99,0]];verticalLabelPosition=bottom;align=center;verticalAlign=top;shape=mxgraph.kubernetes.icon;prIcon=ns" parent="1" vertex="1">
          <mxGeometry x="184" y="421" width="50" height="48" as="geometry" />
        </mxCell>
      </root>
    </mxGraphModel>
  </diagram>
  <diagram id="n8t5KrLDg7migzs9WaQ8" name="Event Storming">
    <mxGraphModel dx="1241" dy="1180" grid="1" gridSize="10" guides="1" tooltips="1" connect="1" arrows="1" fold="1" page="1" pageScale="1" pageWidth="827" pageHeight="1169" math="0" shadow="0">
      <root>
        <mxCell id="0" />
        <mxCell id="1" parent="0" />
        <mxCell id="uPRP9ld_FUw1kRPQjnX--1" value="Acteur" style="shape=note;whiteSpace=wrap;html=1;backgroundOutline=1;darkOpacity=0.05;fillColor=#fff2cc;strokeColor=#d6b656;size=11;" parent="1" vertex="1">
          <mxGeometry x="40" y="200" width="120" height="40" as="geometry" />
        </mxCell>
        <mxCell id="uPRP9ld_FUw1kRPQjnX--2" value="Agrégat" style="shape=note;whiteSpace=wrap;html=1;backgroundOutline=1;darkOpacity=0.05;fillColor=#f5f5f5;strokeColor=#666666;fontColor=#333333;size=11;" parent="1" vertex="1">
          <mxGeometry x="40" y="250" width="120" height="40" as="geometry" />
        </mxCell>
        <mxCell id="uPRP9ld_FUw1kRPQjnX--3" value="Commande" style="shape=note;whiteSpace=wrap;html=1;backgroundOutline=1;darkOpacity=0.05;fillColor=#dae8fc;strokeColor=#6c8ebf;size=11;" parent="1" vertex="1">
          <mxGeometry x="40" y="300" width="120" height="40" as="geometry" />
        </mxCell>
        <mxCell id="uPRP9ld_FUw1kRPQjnX--4" value="Données" style="shape=note;whiteSpace=wrap;html=1;backgroundOutline=1;darkOpacity=0.05;fillColor=#d5e8d4;strokeColor=#82b366;size=10;" parent="1" vertex="1">
          <mxGeometry x="40" y="350" width="120" height="40" as="geometry" />
        </mxCell>
        <mxCell id="uPRP9ld_FUw1kRPQjnX--5" value="Evenement" style="shape=note;whiteSpace=wrap;html=1;backgroundOutline=1;darkOpacity=0.05;fillColor=#ffe6cc;strokeColor=#d79b00;size=10;" parent="1" vertex="1">
          <mxGeometry x="40" y="400" width="120" height="40" as="geometry" />
        </mxCell>
        <mxCell id="uPRP9ld_FUw1kRPQjnX--6" value="Point d&#39;attention" style="shape=note;whiteSpace=wrap;html=1;backgroundOutline=1;darkOpacity=0.05;fillColor=#f8cecc;strokeColor=#b85450;size=9;" parent="1" vertex="1">
          <mxGeometry x="40" y="450" width="120" height="40" as="geometry" />
        </mxCell>
        <mxCell id="uPRP9ld_FUw1kRPQjnX--7" value="Systeme externe" style="shape=note;whiteSpace=wrap;html=1;backgroundOutline=1;darkOpacity=0.05;fillColor=#e1d5e7;strokeColor=#9673a6;size=9;" parent="1" vertex="1">
          <mxGeometry x="40" y="500" width="120" height="40" as="geometry" />
        </mxCell>
      </root>
    </mxGraphModel>
  </diagram>
  <diagram id="a71H1jZq02YLL8K1y3f8" name="Page-7">
    <mxGraphModel dx="2059" dy="1187" grid="1" gridSize="10" guides="1" tooltips="1" connect="1" arrows="1" fold="1" page="1" pageScale="1" pageWidth="827" pageHeight="1169" math="0" shadow="0">
      <root>
        <mxCell id="0" />
        <mxCell id="1" parent="0" />
        <mxCell id="2j3atlLyzUcuMvQ4Fl39-1" value="Customer" style="swimlane;fontStyle=1;align=center;verticalAlign=top;childLayout=stackLayout;horizontal=1;startSize=26;horizontalStack=0;resizeParent=1;resizeParentMax=0;resizeLast=0;collapsible=1;marginBottom=0;whiteSpace=wrap;html=1;" vertex="1" parent="1">
          <mxGeometry x="-30" y="290" width="220" height="242" as="geometry" />
        </mxCell>
        <mxCell id="2j3atlLyzUcuMvQ4Fl39-2" value="+&amp;nbsp;CustomerTypeEnum" style="text;strokeColor=none;fillColor=none;align=left;verticalAlign=top;spacingLeft=4;spacingRight=4;overflow=hidden;rotatable=0;points=[[0,0.5],[1,0.5]];portConstraint=eastwest;whiteSpace=wrap;html=1;" vertex="1" parent="2j3atlLyzUcuMvQ4Fl39-1">
          <mxGeometry y="26" width="220" height="26" as="geometry" />
        </mxCell>
        <mxCell id="2j3atlLyzUcuMvQ4Fl39-3" value="+&amp;nbsp;CustomerStatusEnum" style="text;strokeColor=none;fillColor=none;align=left;verticalAlign=top;spacingLeft=4;spacingRight=4;overflow=hidden;rotatable=0;points=[[0,0.5],[1,0.5]];portConstraint=eastwest;whiteSpace=wrap;html=1;" vertex="1" parent="2j3atlLyzUcuMvQ4Fl39-1">
          <mxGeometry y="52" width="220" height="26" as="geometry" />
        </mxCell>
        <mxCell id="2j3atlLyzUcuMvQ4Fl39-4" value="+ adresse" style="text;strokeColor=none;fillColor=none;align=left;verticalAlign=top;spacingLeft=4;spacingRight=4;overflow=hidden;rotatable=0;points=[[0,0.5],[1,0.5]];portConstraint=eastwest;whiteSpace=wrap;html=1;" vertex="1" parent="2j3atlLyzUcuMvQ4Fl39-1">
          <mxGeometry y="78" width="220" height="26" as="geometry" />
        </mxCell>
        <mxCell id="2j3atlLyzUcuMvQ4Fl39-5" value="+ email" style="text;strokeColor=none;fillColor=none;align=left;verticalAlign=top;spacingLeft=4;spacingRight=4;overflow=hidden;rotatable=0;points=[[0,0.5],[1,0.5]];portConstraint=eastwest;whiteSpace=wrap;html=1;" vertex="1" parent="2j3atlLyzUcuMvQ4Fl39-1">
          <mxGeometry y="104" width="220" height="26" as="geometry" />
        </mxCell>
        <mxCell id="2j3atlLyzUcuMvQ4Fl39-6" value="+ numero" style="text;strokeColor=none;fillColor=none;align=left;verticalAlign=top;spacingLeft=4;spacingRight=4;overflow=hidden;rotatable=0;points=[[0,0.5],[1,0.5]];portConstraint=eastwest;whiteSpace=wrap;html=1;" vertex="1" parent="2j3atlLyzUcuMvQ4Fl39-1">
          <mxGeometry y="130" width="220" height="26" as="geometry" />
        </mxCell>
        <mxCell id="2j3atlLyzUcuMvQ4Fl39-7" value="" style="line;strokeWidth=1;fillColor=none;align=left;verticalAlign=middle;spacingTop=-1;spacingLeft=3;spacingRight=3;rotatable=0;labelPosition=right;points=[];portConstraint=eastwest;strokeColor=inherit;" vertex="1" parent="2j3atlLyzUcuMvQ4Fl39-1">
          <mxGeometry y="156" width="220" height="8" as="geometry" />
        </mxCell>
        <mxCell id="2j3atlLyzUcuMvQ4Fl39-8" value="+ ChangerCoordonnee()" style="text;strokeColor=none;fillColor=none;align=left;verticalAlign=top;spacingLeft=4;spacingRight=4;overflow=hidden;rotatable=0;points=[[0,0.5],[1,0.5]];portConstraint=eastwest;whiteSpace=wrap;html=1;" vertex="1" parent="2j3atlLyzUcuMvQ4Fl39-1">
          <mxGeometry y="164" width="220" height="26" as="geometry" />
        </mxCell>
        <mxCell id="2j3atlLyzUcuMvQ4Fl39-9" value="+ AjouterOffre()" style="text;strokeColor=none;fillColor=none;align=left;verticalAlign=top;spacingLeft=4;spacingRight=4;overflow=hidden;rotatable=0;points=[[0,0.5],[1,0.5]];portConstraint=eastwest;whiteSpace=wrap;html=1;" vertex="1" parent="2j3atlLyzUcuMvQ4Fl39-1">
          <mxGeometry y="190" width="220" height="26" as="geometry" />
        </mxCell>
        <mxCell id="2j3atlLyzUcuMvQ4Fl39-10" value="+ ChangerOffre()" style="text;strokeColor=none;fillColor=none;align=left;verticalAlign=top;spacingLeft=4;spacingRight=4;overflow=hidden;rotatable=0;points=[[0,0.5],[1,0.5]];portConstraint=eastwest;whiteSpace=wrap;html=1;" vertex="1" parent="2j3atlLyzUcuMvQ4Fl39-1">
          <mxGeometry y="216" width="220" height="26" as="geometry" />
        </mxCell>
        <mxCell id="2j3atlLyzUcuMvQ4Fl39-11" value="BillingLine" style="swimlane;fontStyle=1;align=center;verticalAlign=top;childLayout=stackLayout;horizontal=1;startSize=26;horizontalStack=0;resizeParent=1;resizeParentMax=0;resizeLast=0;collapsible=1;marginBottom=0;whiteSpace=wrap;html=1;" vertex="1" parent="1">
          <mxGeometry x="530" y="542" width="160" height="86" as="geometry" />
        </mxCell>
        <mxCell id="2j3atlLyzUcuMvQ4Fl39-12" value="+ IdForfait" style="text;strokeColor=none;fillColor=none;align=left;verticalAlign=top;spacingLeft=4;spacingRight=4;overflow=hidden;rotatable=0;points=[[0,0.5],[1,0.5]];portConstraint=eastwest;whiteSpace=wrap;html=1;" vertex="1" parent="2j3atlLyzUcuMvQ4Fl39-11">
          <mxGeometry y="26" width="160" height="26" as="geometry" />
        </mxCell>
        <mxCell id="2j3atlLyzUcuMvQ4Fl39-13" value="" style="line;strokeWidth=1;fillColor=none;align=left;verticalAlign=middle;spacingTop=-1;spacingLeft=3;spacingRight=3;rotatable=0;labelPosition=right;points=[];portConstraint=eastwest;strokeColor=inherit;" vertex="1" parent="2j3atlLyzUcuMvQ4Fl39-11">
          <mxGeometry y="52" width="160" height="8" as="geometry" />
        </mxCell>
        <mxCell id="2j3atlLyzUcuMvQ4Fl39-14" value="+ method(type): type" style="text;strokeColor=none;fillColor=none;align=left;verticalAlign=top;spacingLeft=4;spacingRight=4;overflow=hidden;rotatable=0;points=[[0,0.5],[1,0.5]];portConstraint=eastwest;whiteSpace=wrap;html=1;" vertex="1" parent="2j3atlLyzUcuMvQ4Fl39-11">
          <mxGeometry y="60" width="160" height="26" as="geometry" />
        </mxCell>
        <mxCell id="2j3atlLyzUcuMvQ4Fl39-15" value="Product" style="swimlane;fontStyle=1;align=center;verticalAlign=top;childLayout=stackLayout;horizontal=1;startSize=26;horizontalStack=0;resizeParent=1;resizeParentMax=0;resizeLast=0;collapsible=1;marginBottom=0;whiteSpace=wrap;html=1;" vertex="1" parent="1">
          <mxGeometry x="530" y="360" width="160" height="86" as="geometry" />
        </mxCell>
        <mxCell id="2j3atlLyzUcuMvQ4Fl39-16" value="+ dateDeFacturation" style="text;strokeColor=none;fillColor=none;align=left;verticalAlign=top;spacingLeft=4;spacingRight=4;overflow=hidden;rotatable=0;points=[[0,0.5],[1,0.5]];portConstraint=eastwest;whiteSpace=wrap;html=1;" vertex="1" parent="2j3atlLyzUcuMvQ4Fl39-15">
          <mxGeometry y="26" width="160" height="26" as="geometry" />
        </mxCell>
        <mxCell id="2j3atlLyzUcuMvQ4Fl39-17" value="" style="line;strokeWidth=1;fillColor=none;align=left;verticalAlign=middle;spacingTop=-1;spacingLeft=3;spacingRight=3;rotatable=0;labelPosition=right;points=[];portConstraint=eastwest;strokeColor=inherit;" vertex="1" parent="2j3atlLyzUcuMvQ4Fl39-15">
          <mxGeometry y="52" width="160" height="8" as="geometry" />
        </mxCell>
        <mxCell id="2j3atlLyzUcuMvQ4Fl39-18" value="+ method(type): type" style="text;strokeColor=none;fillColor=none;align=left;verticalAlign=top;spacingLeft=4;spacingRight=4;overflow=hidden;rotatable=0;points=[[0,0.5],[1,0.5]];portConstraint=eastwest;whiteSpace=wrap;html=1;" vertex="1" parent="2j3atlLyzUcuMvQ4Fl39-15">
          <mxGeometry y="60" width="160" height="26" as="geometry" />
        </mxCell>
        <mxCell id="2j3atlLyzUcuMvQ4Fl39-19" value="Payment" style="swimlane;fontStyle=1;align=center;verticalAlign=top;childLayout=stackLayout;horizontal=1;startSize=26;horizontalStack=0;resizeParent=1;resizeParentMax=0;resizeLast=0;collapsible=1;marginBottom=0;whiteSpace=wrap;html=1;" vertex="1" parent="1">
          <mxGeometry x="240" y="90" width="160" height="86" as="geometry" />
        </mxCell>
        <mxCell id="2j3atlLyzUcuMvQ4Fl39-20" value="+ field: type" style="text;strokeColor=none;fillColor=none;align=left;verticalAlign=top;spacingLeft=4;spacingRight=4;overflow=hidden;rotatable=0;points=[[0,0.5],[1,0.5]];portConstraint=eastwest;whiteSpace=wrap;html=1;" vertex="1" parent="2j3atlLyzUcuMvQ4Fl39-19">
          <mxGeometry y="26" width="160" height="26" as="geometry" />
        </mxCell>
        <mxCell id="2j3atlLyzUcuMvQ4Fl39-21" value="" style="line;strokeWidth=1;fillColor=none;align=left;verticalAlign=middle;spacingTop=-1;spacingLeft=3;spacingRight=3;rotatable=0;labelPosition=right;points=[];portConstraint=eastwest;strokeColor=inherit;" vertex="1" parent="2j3atlLyzUcuMvQ4Fl39-19">
          <mxGeometry y="52" width="160" height="8" as="geometry" />
        </mxCell>
        <mxCell id="2j3atlLyzUcuMvQ4Fl39-22" value="+ method(type): type" style="text;strokeColor=none;fillColor=none;align=left;verticalAlign=top;spacingLeft=4;spacingRight=4;overflow=hidden;rotatable=0;points=[[0,0.5],[1,0.5]];portConstraint=eastwest;whiteSpace=wrap;html=1;" vertex="1" parent="2j3atlLyzUcuMvQ4Fl39-19">
          <mxGeometry y="60" width="160" height="26" as="geometry" />
        </mxCell>
        <mxCell id="2j3atlLyzUcuMvQ4Fl39-23" value="DiscountPolicy" style="swimlane;fontStyle=1;align=center;verticalAlign=top;childLayout=stackLayout;horizontal=1;startSize=26;horizontalStack=0;resizeParent=1;resizeParentMax=0;resizeLast=0;collapsible=1;marginBottom=0;whiteSpace=wrap;html=1;" vertex="1" parent="1">
          <mxGeometry x="650" y="204" width="160" height="86" as="geometry" />
        </mxCell>
        <mxCell id="2j3atlLyzUcuMvQ4Fl39-24" value="+ field: type" style="text;strokeColor=none;fillColor=none;align=left;verticalAlign=top;spacingLeft=4;spacingRight=4;overflow=hidden;rotatable=0;points=[[0,0.5],[1,0.5]];portConstraint=eastwest;whiteSpace=wrap;html=1;" vertex="1" parent="2j3atlLyzUcuMvQ4Fl39-23">
          <mxGeometry y="26" width="160" height="26" as="geometry" />
        </mxCell>
        <mxCell id="2j3atlLyzUcuMvQ4Fl39-25" value="" style="line;strokeWidth=1;fillColor=none;align=left;verticalAlign=middle;spacingTop=-1;spacingLeft=3;spacingRight=3;rotatable=0;labelPosition=right;points=[];portConstraint=eastwest;strokeColor=inherit;" vertex="1" parent="2j3atlLyzUcuMvQ4Fl39-23">
          <mxGeometry y="52" width="160" height="8" as="geometry" />
        </mxCell>
        <mxCell id="2j3atlLyzUcuMvQ4Fl39-26" value="+ method(type): type" style="text;strokeColor=none;fillColor=none;align=left;verticalAlign=top;spacingLeft=4;spacingRight=4;overflow=hidden;rotatable=0;points=[[0,0.5],[1,0.5]];portConstraint=eastwest;whiteSpace=wrap;html=1;" vertex="1" parent="2j3atlLyzUcuMvQ4Fl39-23">
          <mxGeometry y="60" width="160" height="26" as="geometry" />
        </mxCell>
        <mxCell id="2j3atlLyzUcuMvQ4Fl39-27" value="CustomerDetails" style="swimlane;fontStyle=1;align=center;verticalAlign=top;childLayout=stackLayout;horizontal=1;startSize=26;horizontalStack=0;resizeParent=1;resizeParentMax=0;resizeLast=0;collapsible=1;marginBottom=0;whiteSpace=wrap;html=1;" vertex="1" parent="1">
          <mxGeometry x="-470" y="340" width="160" height="86" as="geometry" />
        </mxCell>
        <mxCell id="2j3atlLyzUcuMvQ4Fl39-28" value="+ field: type" style="text;strokeColor=none;fillColor=none;align=left;verticalAlign=top;spacingLeft=4;spacingRight=4;overflow=hidden;rotatable=0;points=[[0,0.5],[1,0.5]];portConstraint=eastwest;whiteSpace=wrap;html=1;" vertex="1" parent="2j3atlLyzUcuMvQ4Fl39-27">
          <mxGeometry y="26" width="160" height="26" as="geometry" />
        </mxCell>
        <mxCell id="2j3atlLyzUcuMvQ4Fl39-29" value="" style="line;strokeWidth=1;fillColor=none;align=left;verticalAlign=middle;spacingTop=-1;spacingLeft=3;spacingRight=3;rotatable=0;labelPosition=right;points=[];portConstraint=eastwest;strokeColor=inherit;" vertex="1" parent="2j3atlLyzUcuMvQ4Fl39-27">
          <mxGeometry y="52" width="160" height="8" as="geometry" />
        </mxCell>
        <mxCell id="2j3atlLyzUcuMvQ4Fl39-30" value="+ method(type): type" style="text;strokeColor=none;fillColor=none;align=left;verticalAlign=top;spacingLeft=4;spacingRight=4;overflow=hidden;rotatable=0;points=[[0,0.5],[1,0.5]];portConstraint=eastwest;whiteSpace=wrap;html=1;" vertex="1" parent="2j3atlLyzUcuMvQ4Fl39-27">
          <mxGeometry y="60" width="160" height="26" as="geometry" />
        </mxCell>
        <mxCell id="2j3atlLyzUcuMvQ4Fl39-31" value="Billing" style="swimlane;fontStyle=1;align=center;verticalAlign=top;childLayout=stackLayout;horizontal=1;startSize=26;horizontalStack=0;resizeParent=1;resizeParentMax=0;resizeLast=0;collapsible=1;marginBottom=0;whiteSpace=wrap;html=1;" vertex="1" parent="1">
          <mxGeometry x="280" y="530" width="160" height="86" as="geometry" />
        </mxCell>
        <mxCell id="2j3atlLyzUcuMvQ4Fl39-32" value="+ field: type" style="text;strokeColor=none;fillColor=none;align=left;verticalAlign=top;spacingLeft=4;spacingRight=4;overflow=hidden;rotatable=0;points=[[0,0.5],[1,0.5]];portConstraint=eastwest;whiteSpace=wrap;html=1;" vertex="1" parent="2j3atlLyzUcuMvQ4Fl39-31">
          <mxGeometry y="26" width="160" height="26" as="geometry" />
        </mxCell>
        <mxCell id="2j3atlLyzUcuMvQ4Fl39-33" value="" style="line;strokeWidth=1;fillColor=none;align=left;verticalAlign=middle;spacingTop=-1;spacingLeft=3;spacingRight=3;rotatable=0;labelPosition=right;points=[];portConstraint=eastwest;strokeColor=inherit;" vertex="1" parent="2j3atlLyzUcuMvQ4Fl39-31">
          <mxGeometry y="52" width="160" height="8" as="geometry" />
        </mxCell>
        <mxCell id="2j3atlLyzUcuMvQ4Fl39-34" value="+ method(type): type" style="text;strokeColor=none;fillColor=none;align=left;verticalAlign=top;spacingLeft=4;spacingRight=4;overflow=hidden;rotatable=0;points=[[0,0.5],[1,0.5]];portConstraint=eastwest;whiteSpace=wrap;html=1;" vertex="1" parent="2j3atlLyzUcuMvQ4Fl39-31">
          <mxGeometry y="60" width="160" height="26" as="geometry" />
        </mxCell>
        <mxCell id="2j3atlLyzUcuMvQ4Fl39-35" value="Company" style="swimlane;fontStyle=1;align=center;verticalAlign=top;childLayout=stackLayout;horizontal=1;startSize=26;horizontalStack=0;resizeParent=1;resizeParentMax=0;resizeLast=0;collapsible=1;marginBottom=0;whiteSpace=wrap;html=1;" vertex="1" parent="1">
          <mxGeometry x="110" y="690" width="160" height="86" as="geometry" />
        </mxCell>
        <mxCell id="2j3atlLyzUcuMvQ4Fl39-36" value="+ field: type" style="text;strokeColor=none;fillColor=none;align=left;verticalAlign=top;spacingLeft=4;spacingRight=4;overflow=hidden;rotatable=0;points=[[0,0.5],[1,0.5]];portConstraint=eastwest;whiteSpace=wrap;html=1;" vertex="1" parent="2j3atlLyzUcuMvQ4Fl39-35">
          <mxGeometry y="26" width="160" height="26" as="geometry" />
        </mxCell>
        <mxCell id="2j3atlLyzUcuMvQ4Fl39-37" value="" style="line;strokeWidth=1;fillColor=none;align=left;verticalAlign=middle;spacingTop=-1;spacingLeft=3;spacingRight=3;rotatable=0;labelPosition=right;points=[];portConstraint=eastwest;strokeColor=inherit;" vertex="1" parent="2j3atlLyzUcuMvQ4Fl39-35">
          <mxGeometry y="52" width="160" height="8" as="geometry" />
        </mxCell>
        <mxCell id="2j3atlLyzUcuMvQ4Fl39-38" value="+ method(type): type" style="text;strokeColor=none;fillColor=none;align=left;verticalAlign=top;spacingLeft=4;spacingRight=4;overflow=hidden;rotatable=0;points=[[0,0.5],[1,0.5]];portConstraint=eastwest;whiteSpace=wrap;html=1;" vertex="1" parent="2j3atlLyzUcuMvQ4Fl39-35">
          <mxGeometry y="60" width="160" height="26" as="geometry" />
        </mxCell>
        <mxCell id="2j3atlLyzUcuMvQ4Fl39-39" value="Induvidual" style="swimlane;fontStyle=1;align=center;verticalAlign=top;childLayout=stackLayout;horizontal=1;startSize=26;horizontalStack=0;resizeParent=1;resizeParentMax=0;resizeLast=0;collapsible=1;marginBottom=0;whiteSpace=wrap;html=1;" vertex="1" parent="1">
          <mxGeometry x="-130" y="684" width="160" height="86" as="geometry" />
        </mxCell>
        <mxCell id="2j3atlLyzUcuMvQ4Fl39-40" value="+ field: type" style="text;strokeColor=none;fillColor=none;align=left;verticalAlign=top;spacingLeft=4;spacingRight=4;overflow=hidden;rotatable=0;points=[[0,0.5],[1,0.5]];portConstraint=eastwest;whiteSpace=wrap;html=1;" vertex="1" parent="2j3atlLyzUcuMvQ4Fl39-39">
          <mxGeometry y="26" width="160" height="26" as="geometry" />
        </mxCell>
        <mxCell id="2j3atlLyzUcuMvQ4Fl39-41" value="" style="line;strokeWidth=1;fillColor=none;align=left;verticalAlign=middle;spacingTop=-1;spacingLeft=3;spacingRight=3;rotatable=0;labelPosition=right;points=[];portConstraint=eastwest;strokeColor=inherit;" vertex="1" parent="2j3atlLyzUcuMvQ4Fl39-39">
          <mxGeometry y="52" width="160" height="8" as="geometry" />
        </mxCell>
        <mxCell id="2j3atlLyzUcuMvQ4Fl39-42" value="+ method(type): type" style="text;strokeColor=none;fillColor=none;align=left;verticalAlign=top;spacingLeft=4;spacingRight=4;overflow=hidden;rotatable=0;points=[[0,0.5],[1,0.5]];portConstraint=eastwest;whiteSpace=wrap;html=1;" vertex="1" parent="2j3atlLyzUcuMvQ4Fl39-39">
          <mxGeometry y="60" width="160" height="26" as="geometry" />
        </mxCell>
        <mxCell id="2j3atlLyzUcuMvQ4Fl39-43" value="&amp;lt;&amp;lt;enumeration&amp;gt;&amp;gt;&lt;br&gt;&lt;b&gt;CustomerType&lt;/b&gt;" style="swimlane;fontStyle=0;align=center;verticalAlign=top;childLayout=stackLayout;horizontal=1;startSize=40;horizontalStack=0;resizeParent=1;resizeParentMax=0;resizeLast=0;collapsible=0;marginBottom=0;html=1;whiteSpace=wrap;" vertex="1" parent="1">
          <mxGeometry x="-420" y="530" width="140" height="96" as="geometry" />
        </mxCell>
        <mxCell id="2j3atlLyzUcuMvQ4Fl39-44" value="Indiviual" style="text;html=1;strokeColor=none;fillColor=none;align=left;verticalAlign=middle;spacingLeft=4;spacingRight=4;overflow=hidden;rotatable=0;points=[[0,0.5],[1,0.5]];portConstraint=eastwest;whiteSpace=wrap;" vertex="1" parent="2j3atlLyzUcuMvQ4Fl39-43">
          <mxGeometry y="40" width="140" height="30" as="geometry" />
        </mxCell>
        <mxCell id="2j3atlLyzUcuMvQ4Fl39-45" value="Company" style="text;strokeColor=none;fillColor=none;align=left;verticalAlign=top;spacingLeft=4;spacingRight=4;overflow=hidden;rotatable=0;points=[[0,0.5],[1,0.5]];portConstraint=eastwest;whiteSpace=wrap;html=1;" vertex="1" parent="2j3atlLyzUcuMvQ4Fl39-43">
          <mxGeometry y="70" width="140" height="26" as="geometry" />
        </mxCell>
        <mxCell id="2j3atlLyzUcuMvQ4Fl39-46" value="Extends" style="endArrow=block;endSize=16;endFill=0;html=1;rounded=0;" edge="1" parent="1" source="2j3atlLyzUcuMvQ4Fl39-39" target="2j3atlLyzUcuMvQ4Fl39-1">
          <mxGeometry width="160" relative="1" as="geometry">
            <mxPoint x="-290" y="770" as="sourcePoint" />
            <mxPoint x="-130" y="770" as="targetPoint" />
          </mxGeometry>
        </mxCell>
        <mxCell id="2j3atlLyzUcuMvQ4Fl39-47" value="Extends" style="endArrow=block;endSize=16;endFill=0;html=1;rounded=0;" edge="1" parent="1" source="2j3atlLyzUcuMvQ4Fl39-35" target="2j3atlLyzUcuMvQ4Fl39-1">
          <mxGeometry width="160" relative="1" as="geometry">
            <mxPoint x="-22" y="694" as="sourcePoint" />
            <mxPoint x="40" y="542" as="targetPoint" />
          </mxGeometry>
        </mxCell>
        <mxCell id="2j3atlLyzUcuMvQ4Fl39-48" value="«interface»&lt;br&gt;&lt;b&gt;IAuditableEntity&lt;/b&gt;" style="html=1;whiteSpace=wrap;" vertex="1" parent="1">
          <mxGeometry x="-220" y="190" width="110" height="50" as="geometry" />
        </mxCell>
        <mxCell id="2j3atlLyzUcuMvQ4Fl39-49" value="«interface»&lt;br&gt;&lt;b&gt;ISoftDeleteEntity&lt;/b&gt;" style="html=1;whiteSpace=wrap;" vertex="1" parent="1">
          <mxGeometry x="-220" y="320" width="110" height="50" as="geometry" />
        </mxCell>
        <mxCell id="2j3atlLyzUcuMvQ4Fl39-50" value="BaseEntity&lt;br&gt;{abstract}" style="swimlane;fontStyle=1;align=center;verticalAlign=top;childLayout=stackLayout;horizontal=1;startSize=40;horizontalStack=0;resizeParent=1;resizeParentMax=0;resizeLast=0;collapsible=1;marginBottom=0;whiteSpace=wrap;html=1;" vertex="1" parent="1">
          <mxGeometry y="50" width="160" height="100" as="geometry" />
        </mxCell>
        <mxCell id="2j3atlLyzUcuMvQ4Fl39-51" value="+ field: type" style="text;strokeColor=none;fillColor=none;align=left;verticalAlign=top;spacingLeft=4;spacingRight=4;overflow=hidden;rotatable=0;points=[[0,0.5],[1,0.5]];portConstraint=eastwest;whiteSpace=wrap;html=1;" vertex="1" parent="2j3atlLyzUcuMvQ4Fl39-50">
          <mxGeometry y="40" width="160" height="26" as="geometry" />
        </mxCell>
        <mxCell id="2j3atlLyzUcuMvQ4Fl39-52" value="" style="line;strokeWidth=1;fillColor=none;align=left;verticalAlign=middle;spacingTop=-1;spacingLeft=3;spacingRight=3;rotatable=0;labelPosition=right;points=[];portConstraint=eastwest;strokeColor=inherit;" vertex="1" parent="2j3atlLyzUcuMvQ4Fl39-50">
          <mxGeometry y="66" width="160" height="8" as="geometry" />
        </mxCell>
        <mxCell id="2j3atlLyzUcuMvQ4Fl39-53" value="+ method(type): type" style="text;strokeColor=none;fillColor=none;align=left;verticalAlign=top;spacingLeft=4;spacingRight=4;overflow=hidden;rotatable=0;points=[[0,0.5],[1,0.5]];portConstraint=eastwest;whiteSpace=wrap;html=1;" vertex="1" parent="2j3atlLyzUcuMvQ4Fl39-50">
          <mxGeometry y="74" width="160" height="26" as="geometry" />
        </mxCell>
        <mxCell id="2j3atlLyzUcuMvQ4Fl39-54" value="Extends" style="endArrow=block;endSize=16;endFill=0;html=1;rounded=0;" edge="1" parent="1" source="2j3atlLyzUcuMvQ4Fl39-1" target="2j3atlLyzUcuMvQ4Fl39-50">
          <mxGeometry width="160" relative="1" as="geometry">
            <mxPoint x="-200" y="270" as="sourcePoint" />
            <mxPoint x="-40" y="270" as="targetPoint" />
          </mxGeometry>
        </mxCell>
        <mxCell id="2j3atlLyzUcuMvQ4Fl39-55" value="" style="shape=providedRequiredInterface;html=1;verticalLabelPosition=bottom;sketch=0;" vertex="1" parent="1">
          <mxGeometry x="-150" y="270" width="20" height="20" as="geometry" />
        </mxCell>
        <mxCell id="2j3atlLyzUcuMvQ4Fl39-56" value="" style="endArrow=none;html=1;edgeStyle=orthogonalEdgeStyle;rounded=0;entryX=0;entryY=0.5;entryDx=0;entryDy=0;entryPerimeter=0;" edge="1" parent="1" source="2j3atlLyzUcuMvQ4Fl39-48" target="2j3atlLyzUcuMvQ4Fl39-55">
          <mxGeometry relative="1" as="geometry">
            <mxPoint x="-160" y="380" as="sourcePoint" />
            <mxPoint y="380" as="targetPoint" />
          </mxGeometry>
        </mxCell>
        <mxCell id="2j3atlLyzUcuMvQ4Fl39-57" value="" style="endArrow=none;html=1;edgeStyle=orthogonalEdgeStyle;rounded=0;exitX=1;exitY=0.5;exitDx=0;exitDy=0;exitPerimeter=0;entryX=0.25;entryY=0;entryDx=0;entryDy=0;" edge="1" parent="1" source="2j3atlLyzUcuMvQ4Fl39-55" target="2j3atlLyzUcuMvQ4Fl39-1">
          <mxGeometry relative="1" as="geometry">
            <mxPoint x="-220" y="370" as="sourcePoint" />
            <mxPoint x="-60" y="370" as="targetPoint" />
          </mxGeometry>
        </mxCell>
        <mxCell id="2j3atlLyzUcuMvQ4Fl39-58" value="" style="endArrow=none;html=1;edgeStyle=orthogonalEdgeStyle;rounded=0;entryX=0;entryY=0.5;entryDx=0;entryDy=0;entryPerimeter=0;exitX=0.5;exitY=0;exitDx=0;exitDy=0;" edge="1" parent="1" source="2j3atlLyzUcuMvQ4Fl39-49" target="2j3atlLyzUcuMvQ4Fl39-55">
          <mxGeometry relative="1" as="geometry">
            <mxPoint x="-260" y="430" as="sourcePoint" />
            <mxPoint x="-100" y="430" as="targetPoint" />
          </mxGeometry>
        </mxCell>
      </root>
    </mxGraphModel>
  </diagram>
</mxfile>
